<?xml version="1.0" standalone="no"?>
<!DOCTYPE svg PUBLIC "-//W3C//DTD SVG 1.1//EN" "http://www.w3.org/Graphics/SVG/1.1/DTD/svg11.dtd" >
<svg xmlns="http://www.w3.org/2000/svg">
<metadata>
Created by FontForge 20120731 at Thu May 11 17:48:52 2017
 By admin
</metadata>
<defs>
<font id="iconfont" horiz-adv-x="1024" >
  <font-face 
    font-family="iconfont"
    font-weight="500"
    font-stretch="normal"
    units-per-em="1024"
    panose-1="2 0 6 3 0 0 0 0 0 0"
    ascent="896"
    descent="-128"
    x-height="792"
    bbox="-4.04762 -224 1171 896"
    underline-thickness="0"
    underline-position="0"
    unicode-range="U+0078-E88E"
  />
<missing-glyph 
 />
    <glyph glyph-name=".notdef" 
 />
    <glyph glyph-name=".notdef" 
 />
    <glyph glyph-name=".null" horiz-adv-x="0" 
 />
    <glyph glyph-name="nonmarkingreturn" horiz-adv-x="341" 
 />
    <glyph glyph-name="x" unicode="x" horiz-adv-x="1001" 
d="M281 543q-27 -1 -53 -1h-83q-18 0 -36.5 -6t-32.5 -18.5t-23 -32t-9 -45.5v-76h912v41q0 16 -0.5 30t-0.5 18q0 13 -5 29t-17 29.5t-31.5 22.5t-49.5 9h-133v-97h-438v97zM955 310v-52q0 -23 0.5 -52t0.5 -58t-10.5 -47.5t-26 -30t-33 -16t-31.5 -4.5q-14 -1 -29.5 -0.5
t-29.5 0.5h-32l-45 128h-439l-44 -128h-29h-34q-20 0 -45 1q-25 0 -41 9.5t-25.5 23t-13.5 29.5t-4 30v167h911zM163 247q-12 0 -21 -8.5t-9 -21.5t9 -21.5t21 -8.5q13 0 22 8.5t9 21.5t-9 21.5t-22 8.5zM316 123q-8 -26 -14 -48q-5 -19 -10.5 -37t-7.5 -25t-3 -15t1 -14.5
t9.5 -10.5t21.5 -4h37h67h81h80h64h36q23 0 34 12t2 38q-5 13 -9.5 30.5t-9.5 34.5q-5 19 -11 39h-368zM336 498v228q0 11 2.5 23t10 21.5t20.5 15.5t34 6h188q31 0 51.5 -14.5t20.5 -52.5v-227h-327z" />
    <glyph glyph-name="quxiantu" unicode="&#xe600;" 
d="M1015 713q0 -5 -0.5 -9t-1.5 -8l1 -1q-21 -53 -43 -103q-20 -43 -44.5 -89.5t-47.5 -79.5q-24 -32 -49 -62.5t-61.5 -55t-88.5 -39.5t-130 -15q-73 0 -125.5 12.5t-87.5 29.5q-41 18 -69 43l1 1q-15 18 -15 44q0 29 20 49.5t50 20.5q13 0 24.5 -5t21.5 -13l1 -1
q11 -11 17 -24q8 -10 23 -20t38 -19q39 -17 80 -19.5t81 10t77 40.5t70 74q31 46 54 91.5t37 83.5q17 44 29 85h1q7 21 25.5 34.5t41.5 13.5q29 0 49.5 -20.5t20.5 -48.5zM865 191q20 0 37.5 -7.5t30 -20t20.5 -30.5t8 -37.5t-8 -37t-20.5 -30.5t-30 -20.5t-37.5 -7.5h-769
q-20 0 -37.5 7.5t-30.5 20.5t-20.5 30.5t-7.5 36.5v577q0 19 7.5 37t20.5 31t30.5 20.5t37.5 7.5t38 -7.5t30.5 -20.5t20.5 -31t8 -37v-481h672z" />
    <glyph glyph-name="zhexiantu" unicode="&#xe601;" horiz-adv-x="1026" 
d="M421 445l-165 -139v187l185 162l5 -6l168 -195l309 320l92 -112l-414 -432l-3 8zM929 190q19 0 37 -7.5t31 -20t20.5 -30t7.5 -37.5t-7.5 -37.5t-20.5 -30.5t-31 -20.5t-37 -7.5h-833q-20 0 -37.5 7.5t-30.5 20.5t-20.5 30.5t-7.5 37.5v640q0 20 7.5 38t20.5 30.5
t30.5 20t37.5 7.5t38 -7.5t30.5 -20t20.5 -30.5t8 -38v-545h736z" />
    <glyph glyph-name="shouye" unicode="&#xe602;" horiz-adv-x="1029" 
d="M1001 401q22 -20 23 -44.5t-16 -41.5q-20 -17 -45.5 -16t-40.5 14q-6 4 -32 29t-62 59t-77.5 73.5t-78.5 74.5t-63.5 60.5t-34.5 31.5q-32 30 -64 29t-63 -29q-10 -9 -38 -35t-65 -61t-78 -73t-75.5 -70.5t-60 -55.5t-30.5 -28q-15 -12 -40.5 -13t-44.5 16q-20 18 -19 44
t17 42q6 6 38 35.5t76 70.5t94.5 88t94 88t75 70t36.5 35q39 37 84 38t77 -30q6 -5 25.5 -24t47.5 -46t63 -61t70.5 -68.5t70 -68t63 -61t48.5 -46.5zM447 550q26 23 62 25t64 -25q3 -3 19 -18l39 -35q22 -22 50.5 -48.5t57.5 -53.5q69 -63 154 -142v-195q0 -22 -17 -39.5
t-46 -18.5h-193v159q0 34 -32 34h-195q-18 0 -24.5 -10.5t-6.5 -23.5q0 -6 -0.5 -31.5t-0.5 -53.5v-74h-188q-29 0 -46.5 13.5t-17.5 37.5v204q84 77 152 139q29 27 57.5 53t52.5 47.5t39.5 36.5t19.5 19z" />
    <glyph glyph-name="yonghu" unicode="&#xe604;" 
d="M542 896q29 0 58.5 -6.5t55 -18t45 -25.5t31.5 -29q26 -32 38.5 -71.5t17.5 -75.5q5 -41 5 -83q7 -5 11 -13q4 -7 6.5 -18.5t0.5 -27.5q-2 -21 -8.5 -34t-14.5 -20q-9 -8 -19 -11l-11 -33q-5 -13 -11.5 -26t-14.5 -20q-20 -15 -32 -26t-16 -36q-3 -16 -2 -31.5t8.5 -31.5
t23.5 -30.5t44 -25.5q26 -10 56 -18t58.5 -19t50.5 -27t32 -43q5 -17 7.5 -41t2.5 -48.5t-3.5 -46t-11.5 -32.5q-5 -7 -29 -14t-59 -14t-78.5 -12t-87.5 -8.5t-84.5 -5.5t-70 -2t-69 2t-81 5.5t-83 8t-75.5 10t-57.5 10.5t-29.5 10q-10 8 -15.5 50t4.5 108q5 38 30 58
t58.5 32t69 21t63.5 26q21 14 32.5 26t16.5 24.5t5 25.5t-1 30q-2 23 -16.5 37t-31.5 28q-8 7 -14.5 20t-11.5 26q-5 15 -10 33q-7 2 -14 7q-6 5 -13.5 14t-12.5 27q-6 17 -4.5 31.5t5.5 24.5q4 11 13 21q-1 39 5 78q4 33 14.5 70.5t32.5 67.5q19 29 43 46.5t49 28t50 14
t49 3.5z" />
    <glyph glyph-name="xiangshang" unicode="&#xe605;" 
d="M854 157l-313 309l-314 -309q-14 -15 -32.5 -22t-37.5 -7t-37 7t-32 22q-30 28 -30 68t30 69l377 374q14 14 34 22t40.5 9t39.5 -5t31 -20l383 -380q29 -29 29 -69t-29 -68q-14 -15 -32.5 -22t-37.5 -7t-37 7t-32 22z" />
    <glyph glyph-name="xiangxia" unicode="&#xe606;" horiz-adv-x="1026" 
d="M857 672q29 28 69.5 28t68.5 -28q30 -29 30 -69t-30 -68l-383 -381q-12 -15 -30.5 -20.5t-39 -4.5t-40.5 8.5t-34 22.5l-377 375q-30 28 -30 68t30 69q14 14 32 21t37 7t37.5 -7t32.5 -21l314 -310z" />
    <glyph glyph-name="wenbenshuru" unicode="&#xe607;" 
d="M943 680q-8 -9 -15 -16l-13 -13q-6 -6 -11 -10l-138 139q8 8 20.5 19.5t20.5 17.5q20 17 43.5 14.5t38.5 -9.5q15 -8 34 -28.5t29 -42.5q5 -15 7 -34.5t-16 -36.5zM552 566l159 159l138 -138q-87 -87 -159 -158q-31 -30 -60 -59t-53 -52t-39 -38l-19 -19q-7 -7 -16 -14
t-20.5 -12.5t-31.5 -12.5t-41.5 -13.5t-41 -12.5t-29.5 -7q-20 -2 -21.5 4t1.5 25l6 30t8 40.5t8.5 38.5t7.5 25q5 12 11 20t16 18zM899 418q22 0 41 -10.5t19 -41.5v-233q0 -29 -10.5 -53t-29 -42t-42 -27.5t-48.5 -9.5h-571q-25 0 -48.5 11t-41 29t-29 43.5t-11.5 53.5
v571q0 20 11.5 42t29 40t40 30t45.5 12h239q28 0 40 -21t12 -42.5t-12 -41.5t-40 -20h-188q-21 0 -34.5 -15t-13.5 -37v-481q0 -20 13.5 -34t34.5 -14h474q22 0 37 14t15 34v191q0 14 7 24t16.5 16.5t21.5 9t23 2.5z" />
    <glyph glyph-name="dingdan" unicode="&#xe608;" 
d="M573 716h-302v120h61q0 25 17.5 42.5t42.5 17.5h60q25 0 42.5 -17.5t17.5 -42.5h61v-120zM422 770q16 0 27 11t11 26q0 17 -11 27.5t-27 10.5t-26.5 -10.5t-10.5 -27.5q0 -15 10.5 -26t26.5 -11zM664 296q44 0 82.5 -17t67 -46t45.5 -67.5t17 -81.5q0 -44 -17 -82.5
t-45.5 -67.5t-67 -45.5t-82.5 -16.5t-82.5 16.5t-67.5 45.5t-46 67.5t-17 82.5q0 43 17 81.5t46 67.5t67.5 46t82.5 17zM795 102q6 7 11 16.5t-3 17.5q-2 2 -9 9.5t-9 8.5q-10 7 -18.5 2t-17.5 -13q-22 -22 -44 -43.5t-41 -40.5q-7 -7 -15 -8.5t-13 5.5q-3 3 -9 9.5
t-13 14.5t-13 15t-9 10q-6 5 -13 6.5t-15 -5.5q-1 -1 -5 -4.5t-7.5 -7.5t-7.5 -7.5t-5 -4.5q-14 -15 4 -36q6 -6 15.5 -16.5t20 -22t21 -22.5t18.5 -18t21.5 -6.5t19.5 7.5q14 13 31.5 30.5l36 36l36.5 36.5t32 31zM389 113q0 -7 -0.5 -13.5t-0.5 -14.5q0 -43 12.5 -82
t35.5 -72h-281q-19 0 -40.5 10.5t-40.5 28t-31.5 39.5t-12.5 46v596q0 21 10 42.5t25 40t35.5 30.5t42.5 12h68v-121h421v121h60q22 0 44 -10t39 -26t28 -39.5t11 -49.5v-341q-33 22 -71.5 35t-82.5 13h-6q17 6 28 21.5t11 34.5q0 25 -18 42.5t-43 17.5h-421
q-25 0 -42.5 -17.5t-17.5 -42.5t17.5 -42.5t42.5 -17.5h404q-58 -10 -105 -41.5t-78 -79.5h-221q-25 0 -42.5 -17t-17.5 -42.5t17.5 -43t42.5 -17.5h178z" />
    <glyph glyph-name="shanchu" unicode="&#xe612;" 
d="M344.5 105q11.5 0 19.5 8t8 20v306q0 12 -8 20t-19.5 8t-19.5 -8t-8 -20v-306q0 -12 8 -20t19.5 -8zM511.5 105q11.5 0 20 8t8.5 20v306q0 12 -8.5 20t-20 8t-19.5 -8t-8 -20v-306q0 -12 8 -20t19.5 -8zM679.5 105q11.5 0 19.5 8t8 20v306q0 12 -8 20t-19.5 8t-20 -8
t-8.5 -20v-306q0 -12 8.5 -20t20 -8zM819 746h-116q-9 37 -39 60.5t-68 23.5h-168q-38 0 -68 -23.5t-39 -60.5h-116q-46 0 -79 -32.5t-33 -78.5v-28h28v-28h56v-530q0 -46 32.5 -79t79.5 -33h446q46 0 79 33t33 79v530h55v28h28v28q0 46 -32.5 78.5t-78.5 32.5zM428 774h168
q31 0 48 -28h-264q16 28 48 28zM791 49q0 -23 -16.5 -39.5t-39.5 -16.5h-446q-24 0 -42 16.5t-18 39.5l4 530h558v-530zM149 635q0 23 16.5 39.5t39.5 16.5h614q23 0 39.5 -16.5t16.5 -39.5h-726z" />
    <glyph glyph-name="squarecheckfill" unicode="&#xe6d4;" 
d="M832 800h-640q-40 0 -68 -28t-28 -68v-640q0 -40 28 -68t68 -28h640q40 0 68 28t28 68v640q0 40 -28 68t-68 28zM727 458l-256 -259v-1v0q-2 -1 -7 -4q-1 -1 -2 -1.5t-2 -1.5q-6 -2 -12 -2t-12 2q-1 1 -2 1.5t-1 1.5q-6 3 -7 4v1h-1l-126 129q-9 10 -9 23t9.5 22.5t23 9
t22.5 -9.5l103 -106l234 236q9 9 22.5 9t22.5 -9.5t9.5 -22.5t-9.5 -22z" />
    <glyph glyph-name="square" unicode="&#xe6d5;" 
d="M832 -32h-640q-40 0 -68 28t-28 68v640q0 40 28 68t68 28h640q40 0 68 -28t28 -68v-640q0 -40 -28 -68t-68 -28zM192 736q-13 0 -22.5 -9.5t-9.5 -22.5v-640q0 -13 9.5 -22.5t22.5 -9.5h640q13 0 22.5 9.5t9.5 22.5v640q0 13 -9.5 22.5t-22.5 9.5h-640z" />
    <glyph glyph-name="squarecheck" unicode="&#xe6d8;" 
d="M727 502.5q-9 9.5 -22.5 9.5t-22.5 -9l-234 -236l-103 106q-9 9 -22.5 9.5t-23 -9t-9.5 -22.5t9 -23l126 -129h1v-1q1 -1 7 -4q0 -1 1 -1.5t2 -1.5q6 -2 12 -2t12 2q1 1 2 1.5t2 1.5q5 3 7 4v0v1l256 259q10 9 9.5 22t-9.5 22.5zM832 -32h-640q-40 0 -68 28t-28 68v640
q0 40 28 68t68 28h640q40 0 68 -28t28 -68v-640q0 -40 -28 -68t-68 -28zM192 736q-13 0 -22.5 -9.5t-9.5 -22.5v-640q0 -13 9.5 -22.5t22.5 -9.5h640q13 0 22.5 9.5t9.5 22.5v640q0 13 -9.5 22.5t-22.5 9.5h-640z" />
    <glyph glyph-name="qq" unicode="&#xe616;" 
d="M512 812q-104 0 -199 -40.5t-163.5 -109t-109 -163.5t-40.5 -199t40.5 -199t109 -163.5t163.5 -109t199 -40.5t199 40.5t163.5 109t109 163.5t40.5 199t-40.5 199t-109 163.5t-163.5 109t-199 40.5zM794 140q-10 -8 -25.5 0.5t-32.5 31.5q-14 -38 -36 -71q51 -18 51 -47
q0 -25 -39 -43t-94 -18q-66 0 -106 24q-39 -24 -106 -24q-55 0 -93.5 18t-38.5 43q0 29 50 47q-21 32 -36 71q-16 -23 -31.5 -31.5t-25.5 -0.5q-14 13 -9.5 52.5t24.5 81.5q9 20 20 35q3 124 74.5 211t171.5 87v0q101 0 172.5 -87t74.5 -211q10 -15 19 -35
q20 -42 24.5 -81.5t-8.5 -52.5z" />
    <glyph glyph-name="shuaxin1" unicode="&#xe648;" 
d="M961 69v0h-81q25 41 41 87q24 69 24 143q0 89 -34 170q-33 79 -93.5 139.5t-139.5 93.5q-81 34 -170 34q-75 0 -145 -25q-10 -3 -14.5 -12.5t-1 -19.5t13 -14.5t19.5 -1.5q62 22 128 22q78 0 148.5 -29t125 -84t83.5 -125t29 -148q0 -65 -21 -126q-14 -40 -36 -76l-26 74
q-3 10 -12.5 14.5t-19.5 1t-14.5 -13t-1.5 -19.5l41 -119q2 -6 7 -10q7 -8 18 -8v0l132 1q11 0 18.5 7.5t7 18t-8 18t-17.5 7.5zM676 -49q-79 -38 -168 -38q-77 0 -147.5 29.5t-125 84t-83.5 125t-29 147.5q0 129 76 231l34 -93q6 -17 24 -17q4 0 9 1q10 4 14.5 13.5
t0.5 19.5l-46 128q-7 20 -27 17q-3 1 -6 1v0l-137 -1q-11 0 -18.5 -7.5t-7.5 -18t7.5 -18t18.5 -7.5v0h84q-78 -112 -78 -249q0 -89 35 -170q33 -78 93.5 -138.5t138.5 -93.5q81 -35 170 -35q100 0 190 43q9 5 12.5 15t-1 19.5t-14.5 13t-19 -1.5z" />
    <glyph glyph-name="shoucangxuanzhong" unicode="&#xe60d;" 
d="M510 791q-18 0 -33.5 -9t-23.5 -25l-97 -197l-223 -33q-18 -2 -31 -13t-19 -27q-12 -34 14 -60l164 -160l-38 -222q-6 -36 26 -58q16 -10 36 -10q15 0 30 7l195 103l195 -103q14 -7 30 -7q19 0 35 10q32 22 26 58l-38 222l164 160q26 26 14 60q-5 16 -18.5 27t-30.5 13
l-224 33l-97 197q-8 16 -23 25t-33 9v0z" />
    <glyph glyph-name="shoucang" unicode="&#xe60f;" 
d="M510 753q15 0 21 -12l97 -198q9 -18 29 -21l224 -33q14 -2 18 -14t-5 -20l-164 -161q-14 -14 -11 -33l38 -222q2 -13 -9 -20q-6 -4 -13 -4q-6 0 -12 3l-195 102q-9 5 -18.5 5t-18.5 -5l-195 -102q-5 -3 -11 -3q-8 0 -14 4q-11 7 -9 20l38 222q3 19 -11 33l-164 161
q-9 8 -5 20t18 14l224 33q20 3 29 21l98 198q6 12 21 12zM510 791q-18 0 -33.5 -9t-23.5 -25l-97 -197l-223 -33q-18 -2 -31 -13t-19 -27q-12 -34 14 -60l164 -160l-38 -222q-6 -36 26 -58q16 -10 36 -10q15 0 30 7l195 103l195 -103q14 -7 30 -7q19 0 35 10q32 22 26 58
l-38 222l164 160q26 26 14 60q-5 16 -18.5 27t-30.5 13l-224 33l-97 197q-8 16 -23 25t-33 9v0z" />
    <glyph glyph-name="survey" unicode="&#xe6b4;" 
d="M722 849q29 0 49.5 -20t20.5 -49v-342l7 16l-397 -403l17 7h-281q-29 0 -49.5 20.5t-20.5 49.5v745l-23 -24h677zM21 896v-23v-745q0 -48 34.5 -82t82.5 -34h281h9l7 7l397 402l7 7v10v342q0 48 -34 82t-83 34h-677h-24zM776 307l-17 -16l17 -17l93 -93l17 -16l16 16
l70 70l17 17l-17 16l-93 93l-17 17l-16 -17zM846 344l93 -93v33l-70 -70h33l-93 93v-33l70 70h-33zM519 51l-5 -5l-2 -7l-23 -116l-7 -34l35 7l116 23l7 1l5 5l257 256l17 17l-17 16l-93 93l-17 17l-16 -17zM776 274l93 -93v33l-257 -256l12 7l-117 -24l28 -27l23 116
l-6 -12l257 256h-33zM427 298q13 0 22 -9t9 -22v-9q0 -13 -9 -22.5t-22 -9.5v0q-14 0 -23 9.5t-9 22.5v9q0 13 9 22t23 9v0zM278 552q1 -2 2 -5.5t8 -10t17.5 -6.5t17 5.5t8.5 11.5l1 5q-2 54 23 79t76 23q67 -8 70 -76q-5 -30 -51 -79q-60 -61 -60 -109v-33q0 -2 1 -5.5
t7.5 -9t16.5 -5.5q4 0 8 1.5t6.5 3t4.5 3.5t3 4l2 4t1 3v1v23q0 40 58 96q61 56 61 102q-5 127 -133 132q-148 2 -148 -158z" />
    <glyph glyph-name="remind" unicode="&#xe6bc;" 
d="M0 461v-175q0 -26 18.5 -45t45.5 -19h165l-15 6l255 -256q23 -22 45 -13t22 41v747q0 32 -22 41t-45 -14l-255 -256l15 7h-165q-27 0 -45.5 -19t-18.5 -45zM229 482h9l6 6l255 256q3 3 5 4q-3 -1 -7 0.5t-5 4.5q1 -2 1 -6v-747q0 -4 -1 -6q1 3 5 4.5t7 0.5q-2 0 -5 3
l-255 256l-6 7h-9h-165q-9 0 -15 6t-6 15v175q0 9 6 15t15 6h165zM821 360.5q0 89.5 -59.5 153t-143.5 63.5q-9 0 -15 -6.5t-6 -15.5t6 -15t15 -6q66 0 113 -51t47 -123t-47 -122.5t-113 -50.5q-9 0 -15 -6.5t-6 -15.5t6 -15t15 -6q84 0 143.5 63.5t59.5 153zM1003 369
q0 117 -67.5 215t-179.5 147q-8 3 -16 0t-11.5 -11t-0.5 -16.5t11 -11.5q101 -44 161 -131.5t60 -191.5q0 -100 -54.5 -184t-147.5 -131q-8 -4 -10.5 -12t1.5 -16t12 -11t16 1q104 52 165 146.5t61 206.5z" />
    <glyph glyph-name="tupian" unicode="&#xe661;" 
d="M359 489q-20 0 -34 -14t-14 -34t14 -34t34 -14t34 14t14 34t-14 34t-34 14zM871 175v362q0 40 -28 68t-68 28h-544q-40 0 -68.5 -28t-28.5 -68v-480q0 -40 28.5 -68.5t68.5 -28.5h544q40 0 68 28.5t28 68.5v118v0v0zM839 57q0 -27 -18.5 -45.5t-45.5 -18.5h-544
q-24 0 -42 15t-21 38l5 -5l166 166l109 -109l222 234l169 -170v-105v0v0zM839 207l-170 170l-222 -234l-108 109l-173 -172v457q0 27 19 45.5t46 18.5h544q27 0 45.5 -18.5t18.5 -45.5v-330z" />
    <glyph glyph-name="pic" unicode="&#xe610;" 
d="M820 643h-616q-30 0 -52 -21.5t-22 -52.5v-562q0 -31 22 -52.5t52 -21.5h616q30 0 52 21.5t22 52.5v562q0 31 -22 52.5t-52 21.5zM204 603h616q14 0 23.5 -10t9.5 -24v-327l-154 180q-4 6 -10.5 5.5t-10.5 -5.5l-228 -306q0 1 -1 1l-126 120q-4 4 -10 3.5t-10 -5.5
l-132 -170v504q0 14 9.5 24t23.5 10zM820 -27h-616q-14 0 -23.5 10t-9.5 24v15l144 185l116 -109q2 -2 4 -3l-62 -82q-8 -11 3 -19q3 -3 8 -3q6 0 10 6l296 395l163 -191v-194q0 -14 -9.5 -24t-23.5 -10zM372.5 313q38.5 0 66 27.5t27.5 66t-27.5 66t-66 27.5t-66 -27.5
t-27.5 -66t27.5 -66t66 -27.5zM372.5 473q27.5 0 47 -19.5t19.5 -47t-19.5 -47.5t-47 -20t-47 20t-19.5 47.5t19.5 47t47 19.5z" />
    <glyph glyph-name="xinrenkaohebiaozhun" unicode="&#xe609;" 
d="M801 739q0 16 -11.5 27.5t-28.5 11.5h-100v-39q0 -16 -11.5 -27.5t-28.5 -11.5h-341q-16 0 -28 11.5t-12 27.5v39h-120q-16 0 -28 -11.5t-12 -27.5v-747q0 -16 12 -27.5t28 -11.5h321l80 -79h-441q-33 0 -56.5 23t-23.5 56v825q0 33 23.5 56t56.5 23h160q0 16 12 27.5
t28 11.5h341q17 0 28.5 -11.5t11.5 -27.5h140q33 0 56.5 -23t23.5 -56v-360l-80 -82v403zM621 464h-361q-8 0 -14 5.5t-6 13.5v20q0 8 6 14t14 6h361q8 0 14 -6t6 -14v-20q0 -8 -6 -13.5t-14 -5.5zM641 267q0 -8 -6 -13.5t-14 -5.5h-361q-8 0 -14 5.5t-6 13.5v20q0 8 6 14
t14 6h361q8 0 14 -6t6 -14v-20zM466 145l149 -127l407 406l-402 -550l-206 219z" />
    <glyph glyph-name="xinrenkecheng" unicode="&#xe60a;" horiz-adv-x="1171" 
d="M1121 -52q-143 25 -274 25q-58 0 -120 -6.5t-95.5 -12t-33.5 -6.5q-6 0 -13 2q-6 -2 -12 -2q-143 25 -274 25q-58 0 -120 -6.5t-95.5 -12t-33.5 -6.5q-21 0 -35.5 14.5t-14.5 35.5v722q0 -7 5 -2q30 30 49 43q91 59 256 59q184 0 275 -72q91 72 273 72q214 0 306 -100
q6 -5 7 0v-722q0 -21 -14.5 -35.5t-35.5 -14.5zM548 671q-2 3 -6.5 8t-24 17.5t-44.5 22.5t-71.5 18t-102.5 8q-47 0 -87 -7.5t-64 -18.5t-41.5 -22t-24.5 -19l-7 -7v-623q0 -12 6.5 -18t13.5 -6.5t23 -0.5h7q85 25 174 25q43 0 93 -6.5t78 -12.5l28 -6h7q15 0 22.5 0.5
t14 6.5t6.5 18v623zM1096 671q-3 4 -10.5 11.5t-39 24.5t-74.5 26v-386l-100 74l-100 -74v392q-30 -4 -57 -13t-43 -18.5t-28 -18t-16 -13.5l-5 -5v-623q0 -12 6.5 -18t13.5 -6.5t23 -0.5h7q85 25 174 25q43 0 93 -6.5t78 -12.5l28 -6h7q16 0 23 0.5t13.5 6.5t6.5 18v623z
M424 222h-225q-10 0 -17.5 7.5t-7.5 17.5v25q0 10 7.5 17.5t17.5 7.5h225q10 0 17 -7.5t7 -17.5v-25q0 -10 -7 -17.5t-17 -7.5zM424 446h-225q-10 0 -17.5 7.5t-7.5 17.5v25q0 10 7.5 17.5t17.5 7.5h225q10 0 17 -7.5t7 -17.5v-25q0 -10 -7 -17.5t-17 -7.5z" />
    <glyph glyph-name="xinrenzhinan" unicode="&#xe60b;" 
d="M780 135q88 -97 88 -225q0 -18 -2 -36h-72q3 20 3 36q0 106 -77 185q-97 -55 -208 -55t-208 54q-77 -78 -77 -184q0 -16 3 -36h-72q-2 18 -2 36q0 128 88 225q-74 60 -116.5 146.5t-42.5 185.5q0 116 57 214.5t155.5 155.5t214.5 57t214.5 -57t155.5 -155.5t57 -214.5
q0 -99 -42.5 -185.5t-116.5 -146.5zM512 600q-36 0 -81 4t-76 7.5t-65 4.5t-56 -5t-41 -20t-28 -42.5t-9 -70.5q0 -100 47.5 -184.5t129.5 -133.5t179 -49t179 49t129.5 133.5t47.5 184.5q0 42 -9 70.5t-28 42.5t-41 20t-56 5t-65 -4.5t-76 -7.5t-81 -4zM678 396
q-20 0 -33.5 14t-13.5 33.5t13.5 33.5t33.5 14t33.5 -14t13.5 -33.5t-13.5 -33.5t-33.5 -14zM654 265q0 -24 -41.5 -41.5t-100.5 -17.5t-100.5 17.5t-41.5 41.5q0 13 12 24q16 -16 51.5 -25.5t78.5 -9.5t78.5 9.5t51.5 25.5q12 -11 12 -24zM346 396q-20 0 -33.5 14
t-13.5 33.5t13.5 33.5t33.5 14t33.5 -14t13.5 -33.5t-13.5 -33.5t-33.5 -14z" />
    <glyph glyph-name="weixin" unicode="&#xe647;" 
d="M580 288q-9 0 -16.5 -7t-7.5 -17q0 -8 7.5 -15t16.5 -7q13 0 21.5 7t8.5 15q0 10 -8.5 17t-21.5 7v0zM503 401q14 0 22 8t8 21q0 14 -8 21.5t-22 7.5t-24 -8t-10 -21t10 -21t24 -8v0zM512 799q-104 0 -198.5 -40.5t-163 -109t-109 -163t-40.5 -198.5t40.5 -199
t109 -163.5t163 -109t198.5 -40.5t199 40.5t163.5 109t109 163.5t40.5 199t-40.5 198.5t-109 163t-163.5 109t-199 40.5v0zM416 158q-36 0 -83 13l-84 -42l24 72q-94 66 -94 158q0 84 69 142t168 58q87 0 154.5 -46.5t82.5 -118.5q-12 3 -22 3q-85 0 -143 -55.5t-58 -132.5
q0 -23 6 -50q-6 -1 -20 -1v0zM763 76l17 -60l-63 36q-5 -1 -22 -5t-28 -5.5t-22 -1.5q-84 0 -142 50t-58 121.5t58 121.5t142 50q80 0 140.5 -50.5t60.5 -121.5q0 -74 -83 -135v0zM338 459q-14 0 -25 -8t-11 -21t11 -21t25 -8q13 0 21.5 8t8.5 21t-8.5 21t-21.5 8v0z
M711 288q-10 0 -17 -7t-7 -17q0 -8 7 -15t17 -7q12 0 20.5 7t8.5 15q0 10 -8.5 17t-20.5 7v0zM711 288z" />
    <glyph glyph-name="office" unicode="&#xe705;" 
d="M335 712q91 2 135 -43q13 -12 20 -28q4 -6 4 -10v6v-440q0 6 10 10q9 4 13 1l-16 -20l20 16q-13 18 -45 33q-58 29 -148 29t-141 -28q-30 -17 -40 -37l23 -11l-19 17q5 6 17 1q11 -4 11 -11v300v140l-3 -13q3 5 9 13q13 17 29 31q53 46 121 44v0zM335 764q-86 1 -154 -57
q-33 -28 -50 -58l-3 -5v-7v-140v-300q0 -28 21.5 -36.5t39.5 12.5l3 3l1 3q3 5 19 14q39 22 116 22q78 0 125 -24q21 -10 27 -18l2 -2l2 -2q21 -17 41 -8t20 36v440l-1 5q-7 33 -38 64q-59 59 -171 58v0zM0 506v-478q0 -28 20.5 -36.5t40.5 9.5l2 2q4 5 13 13q19 16 43 30
q77 45 173 45q94 0 156 -51q19 -16 33 -35q6 -9 9 -14q5 -10 15 -13t19.5 1.5t13 14.5t-1.5 19q-16 34 -55 66q-76 63 -189 63q-110 0 -199 -52q-45 -26 -68 -53l19 -17l-17 19q4 4 14 0q10 -5 10 -11v478q0 11 -7.5 18.5t-18 7.5t-18 -7.5t-7.5 -18.5v0zM697 764
q-113 1 -172 -58q-31 -31 -38 -64l-1 -5v-440q0 -27 20.5 -36t40.5 8l2 2l2 2q6 8 27 18q47 24 125 24q77 0 117 -22q15 -9 18 -14l2 -3l2 -3q19 -21 40 -12.5t21 36.5v300v140v7l-3 5q-17 30 -50 58q-67 58 -154 57h1zM697 712q67 2 120 -44q16 -14 29 -31q7 -8 10 -13
l-4 13v-140v-300q0 7 11 11q12 5 17 -1l-19 -17l23 11q-10 20 -40 37q-51 28 -141 28t-148 -29q-32 -15 -45 -33l21 -16l-17 20q4 3 14 -1t10 -10v440l-1 -6q1 4 4 10q7 16 20 28q44 45 135 43h1zM973 506v-478q0 6 10 11q10 4 14 0l-17 -19l19 17q-23 27 -68 53
q-89 52 -199 52q-113 0 -189 -66q-38 -34 -54 -69q-5 -10 -1 -19.5t13.5 -14t19.5 -1t14 13.5l9 15q14 20 33 36q61 54 155 54q96 0 173 -45q24 -14 43 -30q9 -8 13 -13l2 -2q20 -18 40.5 -9.5t20.5 36.5v478q0 11 -7.5 18.5t-18 7.5t-18 -7.5t-7.5 -18.5v0z" />
    <glyph glyph-name="my" unicode="&#xe78b;" 
d="M800 512q0 120 -84 204t-204 84t-204 -84t-84 -204q0 -81 39.5 -147t107.5 -103q-92 -36 -156.5 -112t-83.5 -176q-2 -12 5 -24t21 -14h6q27 0 32 26q22 112 110 186t204 76h6q118 0 201.5 84t83.5 204zM288 512q0 94 65 159t159 65t159 -65t65 -159q0 -91 -64.5 -156.5
t-156.5 -67.5h-9q-92 2 -155 67.5t-63 156.5zM723 221q-12 7 -25 4.5t-20 -14.5t-4.5 -25t14.5 -20q117 -81 141 -204q5 -26 32 -26h6q13 2 20.5 13t5.5 25q-15 74 -58.5 137.5t-111.5 109.5z" />
    <glyph glyph-name="myfill" unicode="&#xe78c;" 
d="M650 262q66 37 106.5 104.5t40.5 145.5q0 120 -84 204t-204 84t-204 -84t-84 -204q0 -81 39.5 -147t107.5 -103q-93 -36 -157 -112t-83 -176q-5 -14 6 -25q5 -13 23 -13h704q17 0 25 13q12 11 7 25q-19 99 -84.5 175.5t-158.5 112.5z" />
    <glyph glyph-name="jiahao" unicode="&#xe62e;" 
d="M1002 322h-468v468q0 9 -6.5 15.5t-15.5 6.5t-15.5 -6.5t-6.5 -15.5v-468h-468q-9 0 -15.5 -6.5t-6.5 -15.5t6.5 -15.5t15.5 -6.5h468v-468q0 -9 6.5 -15.5t15.5 -6.5t15.5 6.5t6.5 15.5v468h468q9 0 15.5 6.5t6.5 15.5t-6.5 15.5t-15.5 6.5z" />
    <glyph glyph-name="home" unicode="&#xe61b;" 
d="M1024 306l-512 397l-512 -397v162l512 397l512 -397v-162zM896 320v-384h-256v256h-256v-256h-256v384l384 288z" />
    <glyph glyph-name="home2" unicode="&#xe61f;" 
d="M512 864l-512 -512l96 -96l96 96v-416h256v192h128v-192h256v416l96 -96l96 96zM512 448q-27 0 -45.5 18.5t-18.5 45.5t18.5 45.5t45.5 18.5t45.5 -18.5t18.5 -45.5t-18.5 -45.5t-45.5 -18.5z" />
    <glyph glyph-name="profile" unicode="&#xe62d;" 
d="M864 896h-768q-40 0 -68 -28t-28 -68v-832q0 -40 28 -68t68 -28h768q40 0 68 28t28 68v832q0 40 -28 68t-68 28zM832 0h-704v768h704v-768zM256 320h448v-64h-448v64zM256 192h448v-64h-448v64zM320 608q0 40 28 68t68 28t68 -28t28 -68t-28 -68t-68 -28t-68 28t-28 68z
M480 512h-128q-40 0 -68 -19t-28 -45v-64h320v64q0 26 -28 45t-68 19z" />
    <glyph glyph-name="stack" unicode="&#xe630;" 
d="M1024 576l-512 256l-512 -256l512 -256zM512 747l342 -171l-342 -171l-342 171zM921 435l103 -51l-512 -256l-512 256l103 51l409 -204zM921 243l103 -51l-512 -256l-512 256l103 51l409 -204z" />
    <glyph glyph-name="calendar" unicode="&#xe677;" 
d="M320 512h128v-128h-128v128zM512 512h128v-128h-128v128zM704 512h128v-128h-128v128zM128 128h128v-128h-128v128zM320 128h128v-128h-128v128zM512 128h128v-128h-128v128zM320 320h128v-128h-128v128zM512 320h128v-128h-128v128zM704 320h128v-128h-128v128zM128 320
h128v-128h-128v128zM832 896v-64h-128v64h-448v-64h-128v64h-128v-1024h960v1024h-128zM896 -64h-832v704h832v-704z" />
    <glyph glyph-name="calendar2" unicode="&#xe678;" 
d="M939 800h-139v64q0 13 -9.5 22.5t-22.5 9.5t-22.5 -9.5t-9.5 -22.5v-64h-192v64q0 13 -9.5 22.5t-22.5 9.5t-22.5 -9.5t-9.5 -22.5v-64h-192v64q0 13 -9.5 22.5t-22.5 9.5t-22.5 -9.5t-9.5 -22.5v-64h-139q-35 0 -60 -25t-25 -60v-758q0 -35 25 -60t60 -25h854
q35 0 60 25t25 60v758q0 35 -25 60t-60 25zM960 -43q0 -8 -6.5 -14.5t-14.5 -6.5h-854q-8 0 -14.5 6.5t-6.5 14.5v758q0 8 6.5 14.5t14.5 6.5h139v-64q0 -13 9.5 -22.5t22.5 -9.5t22.5 9.5t9.5 22.5v64h192v-64q0 -13 9.5 -22.5t22.5 -9.5t22.5 9.5t9.5 22.5v64h192v-64
q0 -13 9.5 -22.5t22.5 -9.5t22.5 9.5t9.5 22.5v64h139q8 0 14.5 -6.5t6.5 -14.5v-758zM224 512h128v-96h-128v96zM224 352h128v-96h-128v96zM224 192h128v-96h-128v96zM448 192h128v-96h-128v96zM448 352h128v-96h-128v96zM448 512h128v-96h-128v96zM672 192h128v-96h-128
v96zM672 352h128v-96h-128v96zM672 512h128v-96h-128v96z" />
    <glyph glyph-name="folderopen" unicode="&#xe6f9;" 
d="M832 -64l192 512h-832l-192 -512h832zM128 512l-128 -576v832h288l128 -128h416v-128h-704z" />
    <glyph glyph-name="news" unicode="&#xe772;" 
d="M928 896h-704q-40 0 -68 -28t-28 -68v-64h-32q-40 0 -68 -28t-28 -68v-640q0 -53 37.5 -90.5t90.5 -37.5h768q53 0 90.5 37.5t37.5 90.5v800q0 40 -28 68t-68 28zM960 0q0 -26 -19 -45t-45 -19h-768q-26 0 -45 19t-19 45v640q0 13 9.5 22.5t22.5 9.5h32v-640
q0 -13 9.5 -22.5t22.5 -9.5t22.5 9.5t9.5 22.5v768q0 13 9.5 22.5t22.5 9.5h704q13 0 22.5 -9.5t9.5 -22.5v-800zM624 480q-7 0 -11.5 4.5t-4.5 11t4.5 11.5t11.5 5h256q7 0 11.5 -5t4.5 -11.5t-4.5 -11t-11.5 -4.5h-256zM624 576q-7 0 -11.5 4.5t-4.5 11t4.5 11.5t11.5 5
h256q7 0 11.5 -5t4.5 -11.5t-4.5 -11t-11.5 -4.5h-256zM624 672q-7 0 -11.5 4.5t-4.5 11t4.5 11.5t11.5 5h256q7 0 11.5 -5t4.5 -11.5t-4.5 -11t-11.5 -4.5h-256zM528 32q7 0 11.5 -5t4.5 -11.5t-4.5 -11t-11.5 -4.5h-256q-7 0 -11.5 4.5t-4.5 11t4.5 11.5t11.5 5h256z
M528 128q7 0 11.5 -5t4.5 -11.5t-4.5 -11t-11.5 -4.5h-256q-7 0 -11.5 4.5t-4.5 11t4.5 11.5t11.5 5h256zM528 224q7 0 11.5 -5t4.5 -11.5t-4.5 -11t-11.5 -4.5h-256q-7 0 -11.5 4.5t-4.5 11t4.5 11.5t11.5 5h256zM880 32q7 0 11.5 -5t4.5 -11.5t-4.5 -11t-11.5 -4.5h-256
q-7 0 -11.5 4.5t-4.5 11t4.5 11.5t11.5 5h256zM880 128q7 0 11.5 -5t4.5 -11.5t-4.5 -11t-11.5 -4.5h-256q-7 0 -11.5 4.5t-4.5 11t4.5 11.5t11.5 5h256zM880 224q7 0 11.5 -5t4.5 -11.5t-4.5 -11t-11.5 -4.5h-256q-7 0 -11.5 4.5t-4.5 11t4.5 11.5t11.5 5h256zM880 416
q7 0 11.5 -5t4.5 -11.5t-4.5 -11t-11.5 -4.5h-608q-7 0 -11.5 4.5t-4.5 11t4.5 11.5t11.5 5h608zM880 320q7 0 11.5 -5t4.5 -11.5t-4.5 -11t-11.5 -4.5h-608q-7 0 -11.5 4.5t-4.5 11t4.5 11.5t11.5 5h608zM288 480h224q13 0 22.5 9.5t9.5 22.5v224q0 13 -9.5 22.5t-22.5 9.5
h-224q-13 0 -22.5 -9.5t-9.5 -22.5v-224q0 -13 9.5 -22.5t22.5 -9.5zM320 704h160v-160h-160v160z" />
    <glyph glyph-name="note" unicode="&#xe777;" 
d="M1005 653l-192 192q-18 19 -45 19h-672q-40 0 -68 -28t-28 -68v-768q0 -40 28 -68t68 -28h832q40 0 68 28t28 68v608q0 27 -19 45zM960 0q0 -13 -9.5 -22.5t-22.5 -9.5h-832q-13 0 -22.5 9.5t-9.5 22.5v768q0 13 9.5 22.5t22.5 9.5h640v-128v0q0 -40 28 -68t68 -28h128
v-576zM864 608h-32q-27 0 -45.5 19t-18.5 45v0v128l192 -192h-96zM496 640q-7 0 -11.5 4.5t-4.5 11.5t4.5 11.5t11.5 4.5h160q7 0 11.5 -4.5t4.5 -11.5t-4.5 -11.5t-11.5 -4.5h-160zM496 544q-7 0 -11.5 4.5t-4.5 11.5t4.5 11.5t11.5 4.5h160q7 0 11.5 -4.5t4.5 -11.5
t-4.5 -11.5t-11.5 -4.5h-160zM480 464q0 7 4.5 11.5t11.5 4.5h384q7 0 11.5 -4.5t4.5 -11.5t-4.5 -11.5t-11.5 -4.5h-384q-7 0 -11.5 4.5t-4.5 11.5zM880 288q7 0 11.5 -4.5t4.5 -11.5t-4.5 -11.5t-11.5 -4.5h-736q-7 0 -11.5 4.5t-4.5 11.5t4.5 11.5t11.5 4.5h736zM880 192
q7 0 11.5 -4.5t4.5 -11.5t-4.5 -11.5t-11.5 -4.5h-736q-7 0 -11.5 4.5t-4.5 11.5t4.5 11.5t11.5 4.5h736zM880 96q7 0 11.5 -4.5t4.5 -11.5t-4.5 -11.5t-11.5 -4.5h-736q-7 0 -11.5 4.5t-4.5 11.5t4.5 11.5t11.5 4.5h736zM880 384q7 0 11.5 -4.5t4.5 -11.5t-4.5 -11.5
t-11.5 -4.5h-736q-7 0 -11.5 4.5t-4.5 11.5t4.5 11.5t11.5 4.5h736zM160 448h224q13 0 22.5 9.5t9.5 22.5v192q0 13 -9.5 22.5t-22.5 9.5h-224q-13 0 -22.5 -9.5t-9.5 -22.5v-192q0 -13 9.5 -22.5t22.5 -9.5zM192 640h160v-128h-160v128z" />
    <glyph glyph-name="statsdots" unicode="&#xe7f6;" 
d="M128 0h896v-128h-1024v1024h128v-896zM288 64q-40 0 -68 28t-28 68t28 68t68 28h8l104 172q-16 24 -16 52q0 40 28 68t68 28t68 -28t28 -68q0 -29 -16 -52l104 -172h8h6l171 298q-17 24 -17 54q0 40 28 68t68 28t68 -28t28 -68t-28 -68t-68 -28h-6l-171 -298
q17 -24 17 -54q0 -40 -28 -68t-68 -28t-68 28t-28 68q0 29 16 52l-104 172h-8h-8l-104 -172q16 -23 16 -52q0 -40 -28 -68t-68 -28v0z" />
    <glyph glyph-name="jianhao" unicode="&#xe76a;" 
d="M991 406h-958q-9 0 -15.5 -6.5t-6.5 -15.5t6.5 -15.5t15.5 -6.5h958q9 0 15.5 6.5t6.5 15.5t-6.5 15.5t-15.5 6.5z" />
    <glyph glyph-name="a01" unicode="&#xe86c;" 
d="M182 85q6 5 46 25q15 10 46 21q61 30 96 45q3 2 7 4l6 3t5.5 2t6.5 1q3 1 7 3t5.5 3t4 3.5t4.5 6.5q23 23 10 50q-5 10 -15 20q-32 25 -52 75t-24 98v71v71q5 35 60 76q125 78 234 -15l10 -11q13 -13 21 -23t11 -23t4 -18.5t0 -26.5t-1 -30v-71q0 -41 -15 -86.5
t-41 -70.5q-5 -6 -12.5 -12.5t-13 -11.5t-9.5 -12q-14 -27 10 -50q15 -16 46 -26q61 -30 96 -45q8 -3 23 -10.5t23 -10.5q5 -2 12.5 -4.5t12.5 -5.5q2 0 4.5 -1t4.5 -3l1 -1q2 0 4.5 -1t4.5 -3l1 -1q0 -2 -7.5 -9.5t-17 -16.5t-10.5 -10q-61 -50 -102 -70q-100 -46 -192 -46
q-80 0 -153.5 26t-130.5 75l-15 15q1 5 2.5 7t-2 7t-5.5 7l-6 6t-5 4v0v0zM760 754q16 -15 21 -15q5 -4 10 -8.5t9 -7t11 -4.5q31 -31 71 -82q3 -2 8 -9.5l7 -10.5v0q4 -4 15 -25.5t11 -25.5q42 -102 35 -202.5t-51 -187.5q-20 -40 -30 -51q-3 0 -8 3t-7 3l-46 25l-172 81
q7 8 15 15.5t15 14.5q5 5 26 36q22 37 30 86q10 46 10 167q0 26 -5 41q0 2 -1 4.5t-3 4.5l-1 1l-10 15q-8 23 -20 36l-6 5l-5 5q-37 45 -106 71q-25 10 -81 10q-47 -7 -81 -20q-26 -10 -66 -41q-15 -15 -25 -20q-27 -34 -34 -54.5t-7 -62.5v-101q0 -37 13 -81.5t33 -75.5
q5 -5 12.5 -15.5t12.5 -15.5q10 -10 10 -15l5 -5l5 -5q-2 0 -7 -2.5t-8 -2.5q-5 -5 -15 -5l-203 -96l-20 30q-77 123 -61 274q12 144 122 263l25 26l5 5l30 10q86 70 208 86q140 16 244 -35q10 -6 27.5 -16t27.5 -15l5 -5v0v0zM5 399v-40q0 -21 5 -26q0 -20 5 -25
q12 -80 48.5 -153.5t93.5 -130.5q61 -61 142 -101q45 -20 90.5 -31.5t73 -15t29.5 -4.5v0h45q21 0 26 5q149 16 258 101q108 90 147 188q46 96 46 193v45q0 21 -5 31q-8 86 -46.5 166.5t-100.5 142.5l-15 15q-9 9 -26.5 23t-24.5 18q-9 5 -23 14t-27 17t-26 14
q-75 37 -167 46q-26 0 -31 5h-30q-3 -3 -15.5 -5.5t-15.5 -4.5q-108 -8 -208 -66q-20 -10 -35 -25q-20 -11 -66 -56q-9 -7 -17.5 -16.5t-20.5 -26t-18 -23.5q-53 -76 -76 -167l-15 -76v-31v0v0zM5 399z" />
    <glyph glyph-name="a02" unicode="&#xe86d;" 
d="M829 -128h-634q-54 0 -91 37t-37 91v640q0 54 37 91t91 37h97v67h87q19 27 55.5 44t77.5 17t77.5 -17t60.5 -44h87v-67h98q53 0 90.5 -37t37.5 -91v-640q-4 -54 -42 -91t-92 -37v0v0zM671 768h-72q0 27 -26 47t-61 20q-38 0 -62.5 -20t-24.5 -47h-72v-128h318v128v0v0z
M896 640q0 26 -18.5 43.5t-42.5 17.5h-98v-128h-450v128h-92q-28 0 -47.5 -17.5t-19.5 -43.5v-640q0 -26 18.5 -43.5t42.5 -17.5h640q26 0 44 18.5t18 42.5l5 640v0v0zM737 67h-450q-13 0 -22 8t-9 22q0 12 9.5 21.5t21.5 9.5h445q12 0 21.5 -9.5t9.5 -21.5q3 -14 -5 -22
t-21 -8v0v0zM737 225h-450q-12 0 -21.5 9.5t-9.5 21.5t9.5 21.5t21.5 9.5h445q12 0 21.5 -9.5t9.5 -21.5q4 -11 -5 -21t-21 -10v0v0zM737 384h-450q-12 0 -21.5 9.5t-9.5 21.5q0 15 9.5 25.5t21.5 10.5h445q16 0 26 -10.5t10 -25.5q0 -12 -9.5 -21.5t-21.5 -9.5v0v0z
M737 384z" />
    <glyph glyph-name="a05" unicode="&#xe870;" 
d="M722 609l-179 246q-8 15 -26 15v0v0v0v0q-18 0 -25 -15l-190 -246q-7 -15 -4 -29t14 -22t26 -6t26 16l153 210l149 -210q7 -11 23 -14.5t28 4.5q8 8 10 23.5t-5 27.5v0v0zM829 -97v0v0q16 7 16 30v308q0 15 -10.5 25t-25.5 10t-25.5 -10t-10.5 -25v-261l-246 81
q-15 4 -28.5 -2t-17.5 -18q-4 -16 3.5 -29t22.5 -17l292 -97q10 -6 30 5v0v0v0v0zM1024 502v0v0v0v0q-10 20 -26 25l-291 93q-16 3 -29.5 -4t-17.5 -22q-3 -16 4 -29t22 -17l246 -77l-154 -210q-18 -28 5 -51q12 -8 28 -4.5t24 14.5l179 246q10 15 10 36v0v0zM543 41
q-4 16 -17.5 22t-28.5 -2l-241 -81v261q0 15 -10 25t-25.5 10t-26 -10t-10.5 -25v-308q0 -15 16 -30v0v0v0v0q10 -5 30 -5l292 97q12 4 18 17.5t3 28.5v0v0zM364 594q-4 15 -17.5 22t-29.5 4l-291 -98q-16 0 -26 -20v0v0v0v0q0 -26 5 -31l179 -246q8 -11 24 -14.5t28 4.5
t14 23.5t-9 27.5l-154 205l246 82q18 4 26.5 16.5t4.5 24.5v0v0zM364 594z" />
    <glyph glyph-name="bingzhuangtu" unicode="&#xe62a;" 
d="M492 -23q-79 0 -151 30q-69 30 -122.5 83.5t-83.5 122.5q-30 72 -30 151q0 68 23 132q22 61 64 112q86 105 218 133q8 2 15 -2.5t9 -12.5t-3 -15.5t-13 -9.5q-118 -25 -194 -119q-38 -45 -58 -100q-20 -57 -20 -118q0 -144 101 -245t245 -101q62 0 119 21q56 21 102 59
q95 79 118 199q2 9 9 13.5t15 3t13 -8.5t3 -16q-26 -134 -132 -223q-51 -42 -114 -65q-64 -24 -133 -24zM899 385v0h-367q-8 0 -14 6t-6 15v365q0 8 6 14t14 6q79 0 151 -30q69 -30 122.5 -83t83.5 -123q30 -71 30 -150q0 -8 -6 -14t-14 -6zM553 426l325 -1q-8 131 -101 224
t-224 101v-324z" />
    <glyph glyph-name="1zhanghu" unicode="&#xe873;" 
d="M628 333q68 34 108.5 98t40.5 142q0 111 -78 189t-189 78q-110 0 -189 -79t-79 -188q0 -78 41 -143t108 -97q-122 -39 -200.5 -144.5t-78.5 -239.5q0 -9 7 -16t16 -7t16 6.5t7 16.5q0 96 49 178.5t130.5 130t174.5 47.5q95 0 176.5 -47.5t129.5 -129.5t48 -179
q0 -9 7.5 -16t17.5 -7q9 0 16.5 6.5t7.5 16.5q-2 135 -81.5 240t-205.5 144v0zM293 575q0 91 64 155t155 64t155 -64t64 -155t-64 -155t-155 -64q-91 -2 -155 62t-64 157v0zM289 575z" />
    <glyph glyph-name="4zhanghu" unicode="&#xe879;" 
d="M512 -107q-99 0 -192 39q-92 41 -155.5 104.5t-104.5 155.5q-39 93 -39 192t39 192q41 92 104.5 155.5t155.5 104.5q93 39 192 39t192 -39q92 -41 156 -104q69 -70 104 -156q39 -90 39 -192q0 -99 -39 -192q-41 -92 -104 -156q-70 -69 -156 -104q-93 -39 -192 -39v0z
M512 832q-122 0 -225 -60t-163 -163t-60 -225t60 -225t163 -163t225 -60t225 60t163 163t60 225q-2 186 -133 317t-315 131v0zM512 832zM510 331q-82 0 -140.5 58t-58.5 140t58.5 140t140 58t140 -58t58.5 -140t-57.5 -140t-140.5 -58v0zM510 685q-64 0 -110 -46t-46 -110
t46 -110t110 -46t110 46t46 110t-46 110t-110 46v0zM510 685zM222 32l-43 4q0 6 3.5 26t16 61t31.5 78q38 72 101 115q80 53 181 53q105 0 181 -51q64 -44 101 -111q20 -35 32.5 -76t15.5 -59.5t3 -24.5l-43 -4q-6 72 -47 145q-80 138 -243 138q-165 0 -243 -143
q-18 -34 -30 -72.5t-14.5 -56t-2.5 -22.5v0zM222 32z" />
    <glyph glyph-name="1jinqihuankuan" unicode="&#xe87c;" 
d="M849 540q-37 39 -81 70q-4 4 -12 8q39 14 63 43t24 66q0 49 -40.5 82.5t-97.5 33.5q-20 0 -47 -8q-3 -1 -6 -2.5l-6 -3t-4 -2.5q-4 -4 -10 2v0q-16 21 -27 30q-41 33 -85 33q-48 0 -85 -33q-9 -8 -25 -30v0q-4 -4 -10 -4q-1 1 -4.5 2.5t-6 3t-5.5 2.5q-18 8 -47 8
q-57 0 -97.5 -34t-40.5 -82q0 -31 17.5 -57.5t47.5 -41.5q-4 -2 -12 -10q-44 -31 -81 -71q-118 -124 -118 -265q0 -101 35.5 -179.5t98 -127.5t143.5 -74t176 -25q172 0 288 69q175 106 175 337q0 133 -120 260v0zM508 -63q-83 0 -152.5 21.5t-123 62.5t-84 108t-30.5 153
q0 119 103 224q40 41 72 63q16 12 24 16t8 6q26 18 25 42.5t-27 38.5v0v0v0h-2v0h-2v0v0v0v0v0l-4 1q-22 6 -35.5 20.5t-13.5 31.5q0 22 22.5 38.5t54.5 16.5q9 0 25 -4q2 -1 3.5 -2t2.5 -1.5t2 -0.5l4 -2q21 -10 44.5 -5t38.5 23l2 4q4 9 17 19q21 18 44 18q25 0 43 -18
q5 -4 10.5 -11t7.5 -8l2 -2q14 -18 38 -23.5t45 3.5l3 2l8 4q16 4 26 4q32 0 54.5 -16.5t22.5 -38.5q0 -17 -14 -31.5t-36 -20.5l-3 -1q-12 -6 -16 -6q-32 -11 -37 -37.5t21 -43.5q2 -2 10 -6q12 -6 24 -18q34 -26 72 -65q103 -105 103 -216q-1 -90 -30.5 -156.5t-84 -107
t-126 -60t-161.5 -19.5v0zM508 -63zM636 297q10 0 18 8t8 18t-8 18t-18 8h-104l96 98q8 7 8 18.5t-7.5 19t-18 7.5t-17.5 -8l-85 -86l-85 86q-7 8 -17.5 8t-17.5 -7.5t-7 -19t7 -18.5l96 -98h-104q-10 0 -18 -8t-8 -18t8 -18t18 -8h102v-25h-102q-10 0 -18 -8t-8 -18
t8 -17.5t18 -7.5h102v-75q0 -9 7.5 -14.5t18.5 -5.5q10 0 18 6t8 14v75h102q10 0 18 7.5t8 17.5t-8 18t-18 8h-102v25h102v0zM636 297z" />
    <glyph glyph-name="7wodeziliao" unicode="&#xe882;" 
d="M936 370q-21 0 -21 -27v-291q0 -39 -27 -58.5t-61 -19.5h-643q-39 0 -63.5 24t-24.5 64v590q0 44 23.5 67t64.5 23h312q11 0 17.5 6.5t6.5 14.5q0 20 -24 20h-312q-56 0 -92.5 -32.5t-36.5 -94.5v-596q0 -61 36.5 -94t92.5 -33h643q59 0 94 30.5t35 96.5v285
q0 10 -5 17.5t-15 7.5v0zM969 396zM311 323v0v0l-2 -2v0v-3v0v0v0v0v0v0v-2v0q0 -1 -1 -2t-1 -2v0l-53 -159v-5v0v-2v0v-2v0v0v0v0v0v0v0v0v0v0v-2v0v-2v0q0 -4 2 -6v0v-2v0v-2v0v-2v0l2 -2v0l2 -2v0q2 0 2 -2v0q1 0 2 -1t2 -1v0q1 -2 2 -2v0h2v0h2v0h2v0h2v0h5v0v0h4v0h2v0
h2v0l162 53v0q1 0 2 1t2 1v0h2v0v0v0v0v0v0h2v0h2v0l2 2v0l485 475q9 9 9 22.5t-9 22.5l-108 107q-1 1 -4 3t-5 3v0v0q-19 6 -34 -6l-486 -479v0v0zM694 644l94 -92l-350 -348l-143 -47l49 143l350 344v0zM803 751l94 -93l-78 -77l-94 92l78 78v0zM803 751z" />
    <glyph glyph-name="8zijinjilu" unicode="&#xe883;" 
d="M731 534h-426q-25 0 -42 14.5t-17 36.5v133q0 21 17 36t42 15h72q8 43 48 72.5t93 29.5t93.5 -29.5t47.5 -72.5h72q25 0 42.5 -15t17.5 -36v-133q1 -21 -17 -36t-43 -15v0v0zM289 728v0l-2 -151q0 -3 2 -3h459q2 0 2 3v149q0 2 -2 2h-150l2 27v6q0 29 -24.5 49t-59.5 20
t-59.5 -20t-24.5 -49v-6l2 -27h-145v0v0zM272 108h494v-41h-494v41v0v0zM272 267h494v-41h-496l2 41v0v0zM272 429h494v-43h-494v43v0v0zM866 -103h-708q-31 0 -52.5 17.5t-21.5 43.5v655q0 26 21.5 44t52.5 18h84v43q0 21 18 36t43 15h74q8 45 48 74.5t93.5 29.5
t93.5 -29.5t47 -74.5h74q25 0 42.5 -15t17.5 -36v-43h75q31 0 52.5 -18t21.5 -44v-655q-1 -26 -23 -43.5t-53 -17.5v0v0zM152 634q-11 0 -18 -7t-7 -18v-641q0 -30 31 -30h708q13 0 23 8.5t10 19.5v639q0 12 -6 18.5t-11.5 7.5t-15.5 1h-108v94q-8 2 -10 2h-150l2 27v6
q0 29 -24.5 49t-59.5 20t-59.5 -20t-24.5 -49v-6l2 -27h-147q-2 0 -2 -2v-92h-133v0v0zM152 634z" />
    <glyph glyph-name="3jiatingdizhi" unicode="&#xe887;" 
d="M617 555v0l-3 5l-42 54v0q-14 7 -20 0l-46 -34l-45 34q-5 4 -11.5 3t-11.5 -5l-40 -54l-3 -3v-3v-3v-3v-3v0v-3l97 -125l6 -5h3h8h3l3 2l3 3l96 128l3 3v3v6v0v0zM503 466l-56 74l19 26l32 -23q3 0 3 -3h2h6h3l3 3l31 26l17 -23l-60 -80v0zM498 794v0v0v0v0zM617 555v0
l-3 5l-42 54v0q-14 7 -20 0l-46 -34l-45 34q-5 4 -11.5 3t-11.5 -5l-40 -54l-3 -3v-3v-3v-3v-3v0v-3l97 -125l6 -5h3h8h3l3 2l3 3l96 128l3 3v3v6v0v0zM503 466l-56 74l19 26l32 -23q3 0 3 -3h2h6h3l3 3l31 26l17 -23l-60 -80v0zM617 555v0l-3 5l-42 54v0q-14 7 -20 0
l-46 -34l-45 34q-5 4 -11.5 3t-11.5 -5l-40 -54l-3 -3v-3v-3v-3v-3v0v-3l97 -125l6 -5h3h8h3l3 2l3 3l96 128l3 3v3v6v0v0zM503 466l-56 74l19 26l32 -23q3 0 3 -3h2h6h3l3 3l31 26l17 -23l-60 -80v0zM984 475l-452 310l-9 6q-11 7 -25 3q-3 0 -3 -3q-3 0 -3 -3l-452 -313
q-9 -6 -10.5 -16t4.5 -18q12 -11 20 -11q11 0 14 5l74 51v-486q0 -11 7.5 -18.5t18.5 -7.5h685q11 0 18.5 7.5t7.5 18.5v486l77 -51q11 -5 14 -5q16 0 20 11q6 8 4.5 18t-10.5 16v0zM594 28h-179v254h179v-259v5zM822 523v-495h-176v285q0 11 -7.5 18t-18.5 7h-227
q-11 0 -18.5 -7t-7.5 -18v-285h-168v493v0l310 219l313 -217v0v0zM822 523z" />
    <glyph glyph-name="4dianziyoujian" unicode="&#xe888;" 
d="M913 725h-802q-23 0 -38.5 -16.5t-15.5 -40.5v-568q0 -24 15.5 -40.5t38.5 -16.5h802q22 0 38 16.5t16 40.5v568q0 24 -15.5 40.5t-38.5 16.5v0zM913 128l-279 279l279 230v-509v0zM495 304v0q11 -5 17 -5t17 5l68 63q49 -59 150 -154t118 -113h-711q31 31 117.5 130.5
t135.5 147.5l88 -74v0zM868 668l-359 -304l-347 304h706v0zM361 412l-250 -275v503l250 -228v0zM361 412z" />
    <glyph glyph-name="9xuexiaoshiqu" unicode="&#xe88d;" 
d="M816 501q0 -62 -37 -131q-36 -73 -113 -171q-61 -73 -131 -139q-27 -22 -49 0q-147 132 -224 261q-6 17 -23 52q-6 13 -1.5 24t15.5 15q9 5 20 -1t17 -18q39 -89 145 -205l71 -71q6 -6 9 0q69 62 116.5 121.5t88.5 134.5q34 69 39 99q9 73 -28 142q-34 63 -89 97.5
t-124 36.5q-81 2 -148.5 -46t-93.5 -125q-11 -34 -11 -79q0 -15 -8 -24.5t-21 -9.5q-12 0 -20 10t-8 24q0 108 67 191.5t172 106.5q87 20 171.5 -13t138.5 -106q59 -73 59 -176v0zM816 501zM159 14h700q0 3 -6 9q-14 25 -44 78t-44 78q-12 25 0 37q6 12 17 12q21 0 29 -12
q20 -35 61 -106.5t61 -106.5q9 -17 0 -31.5t-28 -14.5h-410h-376q-21 0 -30.5 16t2.5 36q80 136 117 204q13 23 34 17q14 -4 17 -20t-6 -31q-6 -12 -94 -165v0zM159 14zM634 506q0 -51 -35.5 -86.5t-86.5 -35.5t-86.5 35.5t-35.5 87t35.5 87t86.5 35.5t86.5 -36.5
t35.5 -86.5v0zM512 572q-28 0 -46.5 -19t-18.5 -46.5t18.5 -46.5t46.5 -19q26 0 45.5 20t19.5 45q0 28 -19.5 47t-45.5 19v0zM512 572z" />
    <glyph glyph-name="10xiangxidizhi" unicode="&#xe88e;" 
d="M512 -57q-13 15 -35.5 41t-79.5 99.5t-100.5 139.5t-79 143.5t-35.5 128.5q0 89 44 165.5t120 120.5t166 44t166 -44t120 -120.5t44 -165.5q0 -51 -34 -126.5t-82.5 -147.5t-97 -135.5t-82.5 -103.5t-34 -39v0v0zM512 765q-115 0 -192.5 -81.5t-77.5 -199.5
q0 -116 208 -373q62 -77 62 -74q11 12 29.5 33t66.5 80t84 112.5t66 117t30 106.5q0 119 -80 199t-196 80v0v0zM512 384q-57 0 -97 40.5t-40 96.5q0 57 40.5 96.5t96.5 39.5q57 0 97 -40.5t40 -96t-40 -96t-97 -40.5v0v0zM512 600q-34 0 -57 -23.5t-23 -55.5q0 -34 24 -57
t56 -23q34 0 57 23.5t23 56t-23 56t-57 23.5v0v0zM512 600z" />
    <glyph glyph-name="shezhi" unicode="&#xe74f;" 
d="M512 288q-40 0 -68 28t-28 68t28 68t68 28t68 -28t28 -68t-28 -68t-68 -28zM512 416q-13 0 -22.5 -9.5t-9.5 -22.5t9.5 -22.5t22.5 -9.5t22.5 9.5t9.5 22.5t-9.5 22.5t-22.5 9.5zM631 -64q-16 0 -26 13l-73 101q-20 -2 -40 0l-73 -101q-14 -18 -35 -12q-52 15 -98 41
q-19 10 -16 32l20 124q-15 13 -28 28l-124 -20q-22 -3 -32 16q-26 47 -41 98q-6 22 12 35l101 73q-1 9 -1 20t1 20l-101 73q-18 14 -12 35q15 52 41 98q10 19 32 16l124 -20q13 15 28 28l-20 124q-3 22 17 32q46 26 97 41q22 6 35 -12l73 -101q20 2 40 0l73 101q13 18 35 12
q51 -15 98 -41q19 -10 16 -32l-20 -124q15 -13 28 -27l124 19q22 3 32 -16q26 -46 41 -98q6 -22 -12 -35l-101 -73q1 -9 1 -20t-1 -20l101 -73q18 -13 12 -35q-15 -52 -41 -98q-11 -19 -33 -16l-123 19q-12 -14 -28 -27l20 -124q3 -22 -16 -32q-46 -26 -98 -41q-5 -1 -9 -1z
M337 23q21 -10 44 -18l70 97q11 15 30 13q31 -4 62 0q19 2 30 -13l70 -97q23 8 44 18l-19 119q-3 18 12 30q25 20 44 44q12 15 30 12l118 -19q11 21 18 44l-96 70q-15 11 -13 30q2 16 2 31t-2 31q-2 19 13 30l96 70q-7 23 -18 44l-118 -19q-18 -3 -30 12q-20 25 -44 44
q-14 12 -12 30l19 119q-21 10 -44 18l-70 -97q-11 -15 -30 -13q-31 4 -62 0q-19 -2 -30 13l-70 97q-23 -8 -44 -18l19 -119q2 -18 -12 -30q-24 -19 -44 -44q-12 -14 -30 -12l-119 19q-10 -21 -18 -44l97 -70q15 -11 13 -30q-2 -16 -2 -31t2 -31q2 -19 -13 -30l-97 -70
q8 -23 18 -44l119 19q18 2 30 -12q19 -25 44 -44q15 -12 12 -30z" />
    <glyph glyph-name="shenfen" unicode="&#xe754;" 
d="M210 5q-47 0 -80.5 33.5t-33.5 80.5v498q0 47 33.5 80.5t80.5 33.5h623q47 0 80 -33.5t33 -80.5v-498q0 -47 -33 -80.5t-80 -33.5h-623zM210 670q-22 0 -37.5 -15.5t-15.5 -37.5v-498q0 -22 15.5 -37.5t37.5 -15.5h623q21 0 36.5 15.5t15.5 37.5v498q0 22 -15.5 37.5
t-36.5 15.5h-623zM791 192q-13 0 -21.5 9t-8.5 22q0 39 -27.5 66.5t-66.5 27.5t-67 -27.5t-28 -66.5q0 -13 -8.5 -22t-21.5 -9t-21.5 9t-8.5 22q0 39 19 74t53 56q-31 33 -31 77q0 47 33.5 80.5t80.5 33.5t80 -33.5t33 -80.5q0 -44 -31 -77q34 -21 53.5 -56t19.5 -74
q0 -13 -9 -22t-22 -9zM666.5 483q-21.5 0 -37 -15.5t-15.5 -37.5t15.5 -37t37 -15t37 15t15.5 37t-15.5 37.5t-37 15.5zM435 482h-187q-13 0 -22.5 9.5t-9.5 22.5t9.5 22.5t22.5 9.5h187q13 0 22.5 -9.5t9.5 -22.5t-9.5 -22.5t-22.5 -9.5zM435 336h-187q-13 0 -22.5 9.5
t-9.5 22.5t9.5 22.5t22.5 9.5h187q13 0 22.5 -9.5t9.5 -22.5t-9.5 -22.5t-22.5 -9.5zM435 192h-187q-13 0 -22.5 9t-9.5 22.5t9.5 23t22.5 9.5h187q13 0 22.5 -9.5t9.5 -23t-9.5 -22.5t-22.5 -9z" />
    <glyph glyph-name="shizhongfill" unicode="&#xe750;" 
d="M512 832q-91 0 -174 -35.5t-143 -95.5t-95.5 -143t-35.5 -174t35.5 -174t95.5 -143t143 -95.5t174 -35.5t174 35.5t143 95.5t95.5 143t35.5 174t-35.5 174t-95.5 143t-143 95.5t-174 35.5zM671 320h-191q-13 0 -22.5 9.5t-9.5 22.5v255q0 13 9.5 22.5t22.5 9.5t22.5 -9.5
t9.5 -22.5v-223h159q14 0 23 -9.5t9 -22.5t-9 -22.5t-23 -9.5z" />
    <glyph glyph-name="shizhong" unicode="&#xe751;" 
d="M512 832q-91 0 -174 -35.5t-143 -95.5t-95.5 -143t-35.5 -174t35.5 -174t95.5 -143t143 -95.5t174 -35.5t174 35.5t143 95.5t95.5 143t35.5 174t-35.5 174t-95.5 143t-143 95.5t-174 35.5zM512 0q-104 0 -192.5 51.5t-140 140t-51.5 192.5t51.5 192.5t140 140t192.5 51.5
t192.5 -51.5t140 -140t51.5 -192.5t-51.5 -192.5t-140 -140t-192.5 -51.5zM672 384h-160v224q0 13 -9.5 22.5t-22.5 9.5t-22.5 -9.5t-9.5 -22.5v-256q0 -13 9.5 -22.5t22.5 -9.5h192q13 0 22.5 9.5t9.5 22.5t-9.5 22.5t-22.5 9.5z" />
    <glyph glyph-name="shouyefill" unicode="&#xe752;" 
d="M982 492l-409 320q-26 21 -62 21t-62 -21l-406 -321q-10 -8 -11.5 -21t6.5 -23.5t21 -12t24 6.5l13 11v-388q0 -40 34 -68t74 -28h640q37 0 60.5 26.5t23.5 69.5v389l14 -12q9 -7 20 -7q16 0 25 13q9 10 7 23t-12 22zM608 99v-67h-64h-64h-64v67v112q0 31 25 54t71 23
t71 -23t25 -54v-112v0z" />
    <glyph glyph-name="sousuo" unicode="&#xe753;" 
d="M953 -12l-152 163q96 115 96 265q0 113 -56 209t-152 151.5t-208.5 55.5t-208.5 -55.5t-151.5 -151.5t-55.5 -209t55.5 -208.5t151.5 -151.5t209 -56q90 0 172 37q12 6 16.5 18.5t-1 24.5t-18 16.5t-24.5 -0.5q-69 -32 -145 -32q-96 0 -177 47t-128 128.5t-47 177
t47 176.5t128 128t176.5 47t176.5 -47t128.5 -128t47.5 -177q0 -141 -98 -244q-10 -9 -9.5 -22.5t9.5 -22.5q1 0 2 -1t1.5 -1t1 -1.5t1.5 -2.5l166 -177q9 -10 23 -10q12 0 22 9t10.5 22t-9.5 23z" />
    <glyph glyph-name="shezhi1" unicode="&#xe64b;" 
d="M512 198q76 0 129 54.5t53 131.5t-53.5 131.5t-128.5 54.5q-76 0 -129 -54.5t-53 -131.5t53.5 -131.5t128.5 -54.5v0zM512 250q-55 0 -94.5 39.5t-39.5 94.5t39.5 94.5t94.5 39.5t94.5 -39.5t39.5 -94.5t-39.5 -94.5t-94.5 -39.5v0zM249 53q51 -42 112 -67
q66 60 150.5 60t150.5 -60q65 25 112 67q-19 80 22 163q47 79 128 102q7 45 7 67.5t-7 67.5q-81 24 -128 102q-43 73 -22 163q-51 42 -112 68q-66 -61 -150.5 -61t-150.5 61q-65 -25 -112 -68q19 -80 -22 -163q-48 -78 -128 -102q-7 -45 -7 -67.5t7 -67.5q80 -23 128 -102
q41 -83 22 -163zM361 -62q-87 30 -150 89q-12 12 -7 23q25 74 -16 140q-39 69 -112 84q-16 5 -16 19q-9 43 -9 89q0 42 9 90q5 13 16 19q79 21 112 83q37 64 16 141q-5 17 7 23q62 53 150 89q12 4 22 -6q58 -58 128 -58q80 0 128 58q12 12 23 6q87 -30 150 -89q12 -12 7 -23
q-25 -74 16 -141q39 -68 112 -83q16 -5 16 -19q9 -43 9 -90q0 -41 -9 -89q-5 -14 -16 -19q-79 -21 -112 -84q-37 -63 -16 -140q5 -17 -7 -23q-62 -53 -150 -89q-12 -4 -23 6q-57 58 -128 58q-80 0 -128 -58q-6 -6 -16 -6h-6z" />
    <glyph glyph-name="shijian" unicode="&#xe64d;" 
d="M512 832q-94 0 -179.5 -36.5t-147 -98.5t-98 -147.5t-36.5 -178.5t37 -178t98.5 -147t147 -99t178.5 -37t178.5 37t147 99t98.5 147t37 178t-36.5 178.5t-98 147.5t-147 98.5t-179.5 36.5zM512 -45q-112 0 -207 55.5t-150.5 150.5t-55.5 207t55.5 207t150.5 150.5
t207 55.5t207 -55.5t150.5 -150.5t55.5 -207t-55 -207t-150 -150.5t-208 -55.5zM810 352h-279v282q0 9 -6.5 15.5t-16 6.5t-16 -6.5t-6.5 -15.5v-308q0 -9 6.5 -15.5t16.5 -6.5h3h298q9 0 15.5 6.5t6.5 15.5q0 12 -6.5 19t-15.5 7z" />
    <glyph glyph-name="shouhuodizhi" unicode="&#xe64e;" 
d="M518 848q-105 0 -195 -52.5t-142.5 -143.5t-52.5 -198q0 -63 42 -156q36 -74 118 -183q32 -38 109 -121l35 -36q2 -2 5.5 -5t5.5 -4.5t2 -2.5v0q29 -29 70 -29t67 29v0h1l1 1l1 1v1h1l1 1l1 1l1 1v1h1l1 1l1 1l1 1l1 1l1 1l35 36q39 38 109 121q79 94 119 183
q41 83 41 156q4 80 -25 153.5t-81 126t-124 83.5t-151 31zM822 320q-38 -82 -115 -173q-70 -83 -105 -118l-36 -35l-1 -2l-1 -1l-1 -1l-1 -1l-2 -1l-1 -1l-1 -2l-1 -1l-1 -1l-1 -1l-1 -1q-15 -15 -35.5 -15t-35.5 15v0l-1 1l-1 1v0l-1 1l-1 1l-1 1l-2 2l-1 1l-1 1l-1 1v0
l-1 1l-2 2l-35 35q-6 7 -32.5 35t-42.5 46t-30 37q-72 91 -116 173q-38 77 -38 134q0 95 46 174.5t124.5 125.5t171.5 46t172 -46t125 -125.5t46 -174.5q0 -57 -39 -134zM518.5 634q-71.5 0 -120.5 -50.5t-49 -122.5t50 -122.5t119.5 -50.5t119.5 50.5t50 122.5t-49 122.5
t-120.5 50.5zM518.5 339q-50.5 0 -86 36t-35.5 89t35.5 89t86 36t86 -36t35.5 -89t-35.5 -89t-86 -36z" />
    <glyph glyph-name="shouye1" unicode="&#xe64f;" 
d="M970 394l-119 112l-323 300q-16 16 -32 0l-314 -297q-4 -5 -9 -10l-119 -112q-16 -16 0 -32q8 -7 16.5 -7t15.5 7l84 80v-393q0 -37 27 -63.5t65 -26.5h84q29 0 49.5 19.5t20.5 47.5v218h99h99v-218q0 -26 21 -46.5t50 -20.5h83q39 0 66 26t27 64v396l80 -73q16 -16 32 0
q5 4 4.5 13t-7.5 16zM810 38q0 -19 -13 -31.5t-32 -12.5h-83q-10 0 -16.5 6t-6.5 16v240q0 10 -6.5 16t-15.5 6h-122h-121q-10 0 -16.5 -6t-6.5 -16v-240q0 -10 -6.5 -16t-15.5 -6h-83q-20 0 -32.5 12.5t-12.5 31.5v439l294 281l295 -281v-439z" />
    <glyph glyph-name="shuaxin" unicode="&#xe650;" 
d="M960 266q-20 5 -32 -13q-28 -76 -85.5 -133.5t-131 -87t-158.5 -34t-169 27.5q-83 29 -147 84.5t-98.5 124.5t-42.5 147.5t22 155.5q29 75 86.5 132.5t131 87.5t158.5 34t168 -27q70 -24 128 -68.5t96 -104.5h-92q-10 0 -18 -6.5t-8 -15.5q0 -10 7 -16.5t19 -6.5h153
q10 0 18 6.5t8 16.5v140q0 10 -7 16.5t-19 6.5q-10 0 -17.5 -6.5t-7.5 -16.5v-89q-88 131 -247 189q-93 33 -187.5 28t-176 -38.5t-146.5 -98t-98 -147.5q-25 -68 -26.5 -139.5t21 -137.5t63.5 -123.5t102 -102.5t135 -70q93 -34 187.5 -28.5t176 39t146.5 97.5t98 148
q6 7 3 15.5t-13 13.5z" />
    <glyph glyph-name="sousuo1" unicode="&#xe651;" 
d="M966 -29l-230 227q96 107 96 256q0 107 -52.5 197t-142.5 142t-195 52q-107 0 -197 -52.5t-142 -142.5t-52 -196t52.5 -196t142.5 -142t196 -52q149 0 256 96l230 -227q7 -7 19 -7t19 7q10 9 10 20t-10 18zM102 454.5q0 91.5 45 169.5t123.5 124t171.5 46t171 -45.5
t123 -123.5t45 -171q0 -66 -24.5 -126.5t-68.5 -106.5q-2 0 -3.5 -1.5t-2.5 -1.5q-4 -4 -4 -7q-46 -44 -106.5 -68.5t-126.5 -24.5q-93 -1 -172 44t-125 123t-46 169.5z" />
    <glyph glyph-name="tishi" unicode="&#xe653;" 
d="M509 851q-94 0 -180 -36.5t-148.5 -99t-99 -148.5t-36.5 -180t36.5 -180t99 -148t148.5 -99t180 -37t180 37t148 99t99 148t37 180t-37 180t-99 148.5t-148 99t-180 36.5zM508.5 -29q-113.5 0 -209 55.5t-151 151.5t-55.5 209.5t55.5 209t151 151t209 55.5t209.5 -55.5
t151.5 -151t55.5 -209t-55.5 -209.5t-151.5 -151.5t-209.5 -55.5zM521.5 243q9.5 0 16 6.5t6.5 16.5v428q0 10 -6.5 16.5t-16 6.5t-16 -6.5t-6.5 -16.5v-428q-2 -8 5.5 -15.5t17 -7.5zM522 147zM486 147.5q0 14.5 10.5 24.5t25 10t25 -10t10.5 -24.5t-10.5 -25t-25 -10.5
t-25 10.5t-10.5 25z" />
    <glyph glyph-name="wancheng" unicode="&#xe654;" 
d="M486 266q-14 -15 -33.5 -15.5t-33.5 11.5l-137 132l-32 -36l137 -131q29 -26 67.5 -25.5t67.5 28.5l281 298l-35 32zM512 845q-93 0 -178.5 -36.5t-147 -98t-98.5 -147t-37 -179.5t36.5 -179.5t98 -147t147 -98t179.5 -36.5t179.5 36.5t147 98t98 147t36.5 179.5
t-37 179.5t-98.5 147t-147 98t-178.5 36.5zM512 -29q-112 0 -207 55.5t-150.5 150.5t-55.5 207t55.5 207t150.5 150.5t207 55.5t207 -55.5t150.5 -150.5t55.5 -207t-55.5 -207t-150.5 -150.5t-207 -55.5z" />
    <glyph glyph-name="wodedingdan" unicode="&#xe655;" 
d="M883 835h-89q-11 0 -18.5 -7t-7.5 -18q0 -26 26 -26h89q19 0 33.5 -14.5t14.5 -33.5v-714q0 -19 -14.5 -33.5t-33.5 -14.5h-736q-19 0 -33.5 14.5t-14.5 33.5v714q0 19 14.5 33.5t33.5 14.5h99q11 0 18.5 7t7.5 19q0 25 -26 25h-99q-41 0 -68.5 -27.5t-27.5 -68.5v-713
q0 -41 27.5 -68.5t68.5 -27.5h736q41 0 68.5 27.5t27.5 68.5v713q0 40 -28.5 68t-67.5 28zM394 787h240q10 0 17.5 7t7.5 19q0 25 -25 25h-240q-11 0 -18.5 -7t-7.5 -18.5t7.5 -18.5t18.5 -7zM294 550h464q11 0 18.5 7.5t7.5 18.5q0 26 -26 26h-464q-10 0 -17.5 -7.5
t-7.5 -18.5q0 -26 25 -26zM294 355h464q11 0 18.5 7t7.5 19q0 25 -26 25h-464q-10 0 -17.5 -7t-7.5 -18q0 -26 25 -26zM294 160h464q11 0 18.5 7t7.5 19q0 25 -26 25h-464q-10 0 -17.5 -7t-7.5 -18q0 -26 25 -26z" />
    <glyph glyph-name="wodeyouhuiquan" unicode="&#xe65a;" 
d="M877 730h-727q-43 0 -72.5 -30t-29.5 -73v-118v0v-48h26q20 0 35.5 -15.5t15.5 -39.5q0 -22 -15 -38t-36 -16h-26v-45v0v-6v-119q0 -43 29.5 -72.5t72.5 -29.5h727q43 0 72.5 29.5t29.5 72.5v119v6v45h-22q-20 0 -35.5 15.5t-15.5 38.5q0 22 14.5 38.5t36.5 16.5h1h1h1h1
h2h1h2h1h2h2h8v51v3v115q-2 41 -32 70.5t-70 29.5zM851 410q0 -36 21 -63t53 -37v-121q0 -22 -15 -36.5t-36 -14.5h-727q-21 0 -36 14.5t-15 36.5v118v0q36 5 56.5 34.5t20.5 68.5q0 36 -22 65.5t-55 36.5v115q0 22 15 36.5t36 14.5h727q21 0 36 -14.5t15 -36.5v-118
q-32 -7 -53 -35.5t-21 -63.5zM614 406q10 0 18 8t8 18t-8 18t-18 8h-67l58 57q7 7 7 17.5t-7 18t-17.5 7.5t-17.5 -8l-58 -57l-58 57q-7 8 -17.5 8t-17.5 -7.5t-7 -18t7 -17.5l58 -57h-64q-10 0 -18 -8t-8 -18t8 -18t18 -8h80v-51h-80q-10 0 -18 -8t-8 -17.5t8 -17.5t18 -8
h80v-51q0 -10 8 -18t17.5 -8t17.5 8t8 18v51h77q9 0 17 8t8 17.5t-8 17.5t-17 8h-77v51h70z" />
    <glyph glyph-name="xiangshangjiantou" unicode="&#xe65d;" 
d="M966 227l-435 432q-7 7 -17.5 7t-17.5 -7l-442 -432q-7 -7 -7 -17.5t7.5 -17.5t17.5 -7t18 7l425 416l416 -416q7 -7 17.5 -7t18 7t7.5 17.5t-8 17.5z" />
    <glyph glyph-name="xiangxiajiantou" unicode="&#xe65e;" 
d="M966 573q-7 7 -17.5 7t-17.5 -7l-416 -416l-425 416q-8 7 -18 7t-17.5 -7t-7.5 -17.5t7 -17.5l442 -432q7 -8 17.5 -8t17.5 8l435 432q15 20 0 35z" />
    <glyph glyph-name="xiangyoujiantou" unicode="&#xe65f;" 
d="M762 406l-432 436q-8 7 -18 7t-17.5 -7.5t-7.5 -17.5t7 -18l416 -416l-416 -425q-7 -7 -7 -17.5t7.5 -18t17.5 -7.5t18 8l432 441q7 7 7 17.5t-7 17.5z" />
    <glyph glyph-name="xiangzuojiantou" unicode="&#xe660;" 
d="M730 -35l-416 425l416 416q7 8 7 18t-7.5 17.5t-17.5 7.5t-18 -7l-432 -436q-7 -7 -7 -17.5t7 -17.5l432 -441q8 -8 18 -8t17.5 7.5t7.5 18t-7 17.5z" />
    <glyph glyph-name="yijianfankui" unicode="&#xe662;" 
d="M874 621q-12 0 -19 -8t-7 -18v-550q0 -22 -15 -36.5t-36 -14.5h-643q-22 0 -37 14.5t-15 36.5v646q0 22 15 36.5t37 14.5h521q12 0 19 8t7 18t-8 18t-18 8h-521q-43 0 -74.5 -31t-31.5 -72v-646q0 -43 31 -73t75 -30h643q43 0 74 30t31 73v550q-5 26 -28 26zM483 534
h-278q-12 0 -19 -7.5t-7 -17.5t8 -18t18 -8h278q12 0 19 8t7 18q0 11 -8 18t-18 7zM179 329.5q0 -9.5 8 -17.5t18 -8h461q11 0 18 7.5t7 18.5q0 9 -8 17t-17 8h-461q-10 0 -18 -8t-8 -17.5zM969.5 838.5q-7.5 7.5 -18 7.5t-20.5 -8l-326 -323q-7 -7 -7 -17.5t7 -17.5t18 -7
t20 7l327 323q7 7 7 17.5t-7.5 18z" />
    <glyph glyph-name="bijibennotebook43" unicode="&#xe60c;" horiz-adv-x="1127" 
d="M256 497q0 -5 3.5 -8t7.5 -3h592q11 0 11 11v30q0 11 -11 11h-592q-11 0 -11 -11v-30zM256 87q0 -4 3.5 -7t7.5 -3h592q11 0 11 10v31q0 10 -11 10h-592q-11 0 -11 -10v-31zM205 742v52h-153q-22 0 -37 -15t-15 -36v-820q0 -21 15 -36t36 -15h1024q22 0 36.5 15t14.5 36
v820q0 21 -15 36t-36 15h-153v-52h153v-819h-1024v817zM410 794h51v-52h-51v52zM256 793.5q0 42.5 15 72.5t36 30t36 -30t15 -72.5t-15 -72.5t-36 -30t-36 30t-15 72.5zM256 292q0 -4 3.5 -7t7.5 -3h592q11 0 11 10v31q0 10 -11 10h-592q-11 0 -11 -10v-31zM512 793.5
q0 42.5 15 72.5t36 30t36 -30t15 -72.5t-15 -72.5t-36 -30t-36 30t-15 72.5zM768 793.5q0 42.5 15 72.5t36 30t36 -30t15 -72.5t-15 -72.5t-36 -30t-36 30t-15 72.5zM666 794h51v-52h-51v52z" />
    <glyph glyph-name="heisedeblack382" unicode="&#xe65b;" horiz-adv-x="1127" 
d="M256 793.5q0 42.5 15 72.5t36 30t36 -30t15 -72.5t-15 -72.5t-36 -30t-36 30t-15 72.5zM205 794h-154q-21 0 -36 -15t-15 -36v-820q0 -21 15 -36t36 -15h1024q22 0 36.5 15t14.5 36v820q0 21 -15 36t-36 15h-153q0 -64 -30 -109t-72.5 -45t-72.5 45t-30 109h-51
q0 -64 -30 -109t-72.5 -45t-72.5 45t-30 109h-51q0 -64 -30 -109t-72.5 -45t-72.5 45t-30 109zM256 527q0 11 11 11h592q5 0 8 -3t3 -8v-30q0 -11 -11 -11h-592q-11 0 -11 11v30zM256 323q0 10 11 10h592q5 0 8 -3t3 -7v-31q0 -10 -11 -10h-592q-11 0 -11 10v31zM256 118
q0 10 11 10h592q5 0 8 -3t3 -7v-31q0 -10 -11 -10h-592q-11 0 -11 10v31zM768 793.5q0 42.5 15 72.5t36 30t36 -30t15 -72.5t-15 -72.5t-36 -30t-36 30t-15 72.5zM512 793.5q0 42.5 15 72.5t36 30t36 -30t15 -72.5t-15 -72.5t-36 -30t-36 30t-15 72.5z" />
    <glyph glyph-name="heisedeblack3821" unicode="&#xe747;" horiz-adv-x="1127" 
d="M256 793.5q0 42.5 15 72.5t36 30t36 -30t15 -72.5t-15 -72.5t-36 -30t-36 30t-15 72.5zM205 794h-154q-21 0 -36 -15t-15 -36v-820q0 -21 15 -36t36 -15h1024q22 0 36.5 15t14.5 36v820q0 21 -15 36t-36 15h-153q0 -64 -30 -109t-72.5 -45t-72.5 45t-30 109h-51
q0 -64 -30 -109t-72.5 -45t-72.5 45t-30 109h-51q0 -64 -30 -109t-72.5 -45t-72.5 45t-30 109zM256 527q0 11 11 11h592q5 0 8 -3t3 -8v-30q0 -11 -11 -11h-592q-11 0 -11 11v30zM256 323q0 10 11 10h592q5 0 8 -3t3 -7v-31q0 -10 -11 -10h-592q-11 0 -11 10v31zM256 118
q0 10 11 10h592q5 0 8 -3t3 -7v-31q0 -10 -11 -10h-592q-11 0 -11 10v31zM768 793.5q0 42.5 15 72.5t36 30t36 -30t15 -72.5t-15 -72.5t-36 -30t-36 30t-15 72.5zM512 793.5q0 42.5 15 72.5t36 30t36 -30t15 -72.5t-15 -72.5t-36 -30t-36 30t-15 72.5z" />
    <glyph glyph-name="copy" unicode="&#xe744;" 
d="M747 198zM926 607l-3 3l-4 4q-3 2 -5.5 4.5t-6.5 6t-6 6.5q-29 26 -56 51q-2 1 -3 2l-2 2q-37 33 -59 52q-13 11 -20 16q-5 4 -9 6q-5 2 -11 2q-9 0 -15 -6.5t-6 -15.5v-42v-43v-85v-21h21h149v-595h-531q-27 0 -45.5 19t-18.5 45v701h361q9 0 15 6.5t6 15t-6 15t-15 6.5
h-382h-22v-22v-657h-52q-25 0 -42.5 17t-17.5 41v683h566q25 0 42.5 -17t17.5 -41v-4h40v4q0 40 -29 68.5t-71 28.5h-586h-20v-20v-702q0 -40 29 -68.5t71 -28.5h52v-26q0 -44 31.5 -75t75.5 -31h552h21v21v637v22v0q0 9 -6 15zM762 592v63v43v0q12 -10 50 -44l2 -2l2 -2
q39 -35 56 -50l8 -8h-118zM817 460h-410q-8 0 -14 -5.5t-6 -14t6 -14t14 -5.5h410q8 0 14 5.5t6 14t-6 14t-14 5.5zM817 343h-410q-8 0 -14 -5.5t-6 -14t6 -14t14 -5.5h410q8 0 14 5.5t6 14t-6 14t-14 5.5zM817 207h-410q-8 0 -14 -5.5t-6 -14t6 -14t14 -5.5h410q8 0 14 5.5
t6 14t-6 14t-14 5.5z" />
    <glyph glyph-name="bianji" unicode="&#xe6b0;" 
d="M908.5 404q-8.5 0 -14 -6t-5.5 -14v-339q0 -29 -20.5 -49.5t-49.5 -20.5h-616q-29 0 -49.5 20.5t-20.5 49.5v677q0 29 20.5 49.5t49.5 20.5h362q8 0 14 5.5t6 14t-6 14.5t-14 6h-362q-46 0 -78 -32.5t-32 -77.5v-677q0 -45 32 -77.5t78 -32.5h616q45 0 77.5 32.5
t32.5 77.5v339q0 8 -6 14t-14.5 6zM943 778l-36 35q-17 18 -42 18t-43 -18l-422 -422q-2 -2 -3 -4l-128 -227q-7 -14 4 -25q6 -5 14 -5q5 0 10 3l220 135q2 1 3 3l423 422q17 18 17 42.5t-17 42.5zM419 344l55 -55l-132 -82zM914 721l-408 -408l-64 64l409 408q5 6 13.5 6
t14.5 -6l35 -35q6 -6 6 -14.5t-6 -14.5z" />
    <glyph glyph-name="shouyefill1" unicode="&#xe6ca;" 
d="M958 444q0 10 -7 15l-427 367q-13 12 -26 0l-187 -161v101q0 8 -6 14t-14 6h-88q-9 0 -14.5 -6t-5.5 -14v-211l-112 -96q-6 -5 -6 -15v-105q0 -14 12 -19q3 -1 7 -1q8 0 13 5l54 45v-344q0 -37 26 -63.5t64 -26.5h156v4v276q0 17 11.5 28.5t28.5 11.5h134q16 0 28 -11.5
t12 -28.5v-276q0 -2 -1 -4h175q37 0 63.5 26.5t26.5 63.5v344l51 -44q8 -7 19 -5q15 5 14 20z" />
    <glyph glyph-name="shouye2" unicode="&#xe6cb;" 
d="M958 444q0 10 -7 15l-427 367q-13 12 -26 0l-188 -162v102q0 9 -6 14.5t-14 5.5h-88q-9 0 -14.5 -5.5t-5.5 -14.5v-212l-111 -95q-7 -6 -7 -15v-105q0 -13 12 -18q4 -2 8 -2q8 0 13 5l54 45v-324q0 -45 32 -77.5t78 -32.5h504q45 0 77.5 32.5t32.5 77.5v324l51 -44
q10 -9 22 -3.5t11 18.5zM222 746h48v-116l-48 -41v157zM571 -25h-134v220q0 9 5.5 14.5t14.5 5.5h94q8 0 14 -5.5t6 -14.5v-220zM835 400v-355q0 -29 -20.5 -49.5t-49.5 -20.5h-154v220q0 25 -17.5 42.5t-42.5 17.5h-94q-25 0 -42.5 -17.5t-17.5 -42.5v-220h-136
q-29 0 -49.5 20.5t-20.5 49.5v355q0 2 -1 4l322 276l323 -277v-3zM525 722q-13 11 -26 0l-395 -340v53l407 350l407 -350l1 -51z" />
    <glyph glyph-name="tixing" unicode="&#xe6cc;" 
d="M925 190q-14 12 -42 30q-10 6 -9 17v3q1 130 -13 209q-25 146 -103 225q-61 62 -154 82q-5 29 -26 49q-27 25 -65.5 25t-64.5 -25q-22 -20 -27 -49q-92 -20 -153 -82q-33 -33 -56.5 -79.5t-34 -92t-16.5 -94.5t-5 -89t0 -76v-6q0 -11 -10 -17q-29 -18 -43 -30
q-39 -33 -39 -84q0 -21 15 -36.5t36 -15.5h278q0 -49 35 -84t84.5 -35t84.5 35t36 84h275q22 0 37.5 16t15.5 38q0 49 -36 82zM513 790q22 0 37 -14q7 -6 10 -14q-23 3 -47.5 3t-47.5 -3q14 28 48 28zM513 -25q-33 0 -56.5 23.5t-23.5 55.5h160q-1 -32 -24 -55.5t-56 -23.5z
M908 94h-793q-4 0 -7.5 3.5t-3.5 8.5q0 32 25 53q12 10 39 27q28 18 28 52v6q0 33 -0.5 71t5 84.5t15 89t30.5 85t51 72.5q77 79 216 79t217 -79q69 -70 92 -204q13 -76 12 -202v-2q-1 -34 27 -52q26 -16 37 -26q23 -21 23 -52q0 -6 -3.5 -10t-9.5 -4zM451 683
q-33 0 -83 -44q-53 -47 -63 -96q-2 -8 2.5 -15t13.5 -8q2 -1 4 -1q16 0 19 16q8 36 51 74q18 16 34 25t22 9q8 0 14 5.5t6 14t-6 14.5t-14 6z" />
    <glyph glyph-name="dangdifill" unicode="&#xe6d6;" 
d="M815 166q-79 24 -180 34q64 94 104.5 198.5t40.5 181.5q0 108 -78 184t-188.5 76t-188.5 -76t-78 -184q0 -76 40.5 -180.5t104.5 -199.5q-102 -9 -181 -34q-56 -16 -94 -40t-38 -56q0 -43 64.5 -74.5t161 -46.5t208.5 -15q174 0 298 35q136 38 136 101q0 56 -132 96z
M514.5 714q45.5 0 77.5 -32t32 -78t-32 -78t-77.5 -32t-78 32t-32.5 78t32.5 78t78 32zM883 42q-29 -20 -83 -35q-118 -33 -287 -33t-288 33q-54 15 -83 35q-23 15 -23 28q0 4 6.5 11.5t32 21t64.5 25.5q85 26 197 34q38 -50 76 -86q8 -8 18.5 -8t17.5 8q39 36 77 86
q111 -8 195 -34q39 -12 64.5 -25.5t32.5 -21t7 -11.5q0 -13 -24 -28z" />
    <glyph glyph-name="dangdi" unicode="&#xe6d7;" 
d="M664 567q0 62 -44 106t-106 44t-106 -44t-44 -106t44 -106t106 -44t106 44t44 106zM404 567.5q0 45.5 32.5 77.5t78 32t77.5 -32t32 -77.5t-32 -78t-77.5 -32.5t-78 32.5t-32.5 78zM855 155q-69 27 -175 41q54 90 87 183t33 164q0 116 -84 198.5t-202.5 82.5
t-202.5 -82.5t-84 -198.5q0 -111 77 -268q20 -40 43 -79q-106 -13 -176 -41q-92 -36 -92 -89q0 -64 135 -103q124 -36 298.5 -36t298.5 36q136 39 136 103q0 53 -92 89zM267 543q0 99 72 170t174 71t174.5 -71t72.5 -170q0 -69 -36 -165t-93 -185q-3 -3 -4 -6
q-53 -81 -110 -133l-1 -1q-1 -2 -2.5 -2t-3.5 2l-1 1q-95 89 -168.5 237.5t-73.5 251.5zM800 1q-119 -34 -287.5 -34t-287.5 34q-54 16 -80 34t-26 31q0 11 15.5 24t45 26t79.5 24.5t112 17.5q54 -80 110 -133q13 -14 32 -14t32 14q58 54 111 133q62 -7 111.5 -18.5
t79 -24.5t45 -25.5t15.5 -23.5q0 -13 -26.5 -31t-80.5 -34z" />
    <glyph glyph-name="accountmultiple" unicode="&#xe60e;" 
d="M683 341q-27 0 -42 -2q84 -61 84 -147v-107h256v107q0 35 -32 65t-80 47.5t-97.5 27t-88.5 9.5zM341.5 341q-39.5 0 -89 -9.5t-97.5 -27t-80 -47.5t-32 -65v-107h597v107q0 35 -32.5 65t-80 47.5t-97 27t-89 9.5zM341 427q53 0 90.5 37.5t37.5 90.5t-37.5 90.5
t-90.5 37.5t-90.5 -37.5t-37.5 -90.5t37.5 -90.5t90.5 -37.5zM683 427q53 0 90.5 37.5t37.5 90.5t-37.5 90.5t-90.5 37.5t-90.5 -37.5t-37.5 -90.5t37.5 -90.5t90.5 -37.5z" />
    <glyph glyph-name="accountoutline" unicode="&#xe613;" 
d="M512 341q-45 0 -101.5 -11t-111.5 -31t-91.5 -54t-36.5 -74v-128h682v128q0 40 -36.5 74t-91.5 54t-111.5 31t-101.5 11zM512 725q-71 0 -121 -50t-50 -120.5t50 -120.5t121 -50t121 50t50 120.5t-50 120.5t-121 50zM512 260q59 0 122 -16.5t100.5 -37.5t37.5 -35v-47
h-520v47q0 14 37 35t100 37.5t123 16.5zM512 644q37 0 63.5 -26t26.5 -63t-26.5 -63.5t-63.5 -26.5t-63.5 26.5t-26.5 63.5t26.5 63t63.5 26z" />
    <glyph glyph-name="alertbox" unicode="&#xe61c;" 
d="M213 768h598q35 0 60 -25t25 -60v-598q0 -35 -25 -60t-60 -25h-598q-35 0 -60 25t-25 60v598q0 35 25 60t60 25zM555 341v256h-86v-256h86zM555 171v85h-86v-85h86z" />
    <glyph glyph-name="alertcircle" unicode="&#xe61d;" 
d="M555 341h-86v256h86v-256zM555 171h-86v85h86v-85zM512 811q-116 0 -214 -57.5t-155.5 -155.5t-57.5 -214t57.5 -214t155.5 -155.5t214 -57.5t214 57.5t155.5 155.5t57.5 214t-57.5 214t-155.5 155.5t-214 57.5z" />
    <glyph glyph-name="alertoctagon" unicode="&#xe61e;" 
d="M555 341h-86v256h86v-256zM512 158q-23 0 -39 16t-16 39t16 39.5t39 16.5t39 -16.5t16 -39.5t-16 -39t-39 -16zM671 768h-318l-225 -225v-318l225 -225h318l225 225v318z" />
    <glyph glyph-name="cakebing" unicode="&#xe72a;" 
d="M474 820q19 0 19 -19v-436h436q19 0 19 -19q0 -194 -139.5 -334t-334 -140t-334.5 140t-140 334t140 334t334 140zM455 782q-175 -7 -296 -134t-121 -302q0 -180 128 -308t308 -128q176 0 302 121q127 121 134 296h-436q-19 0 -19 19v436v0zM1005 403h-455q-19 0 -19 19
v455q0 19 19 19q194 0 333 -137.5t141 -331.5v-5q0 -19 -19 -19zM569 441h417q-7 168 -128 289t-289 128v-417z" />
    <glyph glyph-name="bussinesscard" unicode="&#xe755;" horiz-adv-x="1025" 
d="M448 491q0 53 -37.5 90.5t-90.5 37.5t-90.5 -37.5t-37.5 -90.5t37.5 -90.5t90.5 -37.5t90.5 37.5t37.5 90.5zM243 490.5q0 31.5 22.5 54t54.5 22.5t54.5 -22.5t22.5 -54t-22.5 -54t-54.5 -22.5t-54.5 22.5t-22.5 54zM131 227v-26h26h171h191h26v26q0 75 -62 131t-145 56
q-10 0 -20 -1q-11 -1 -17.5 -9.5t-6 -19.5t5 -15t15.5 -3q3 0 11.5 -2.5t11.5 -2.5q64 0 109.5 -31t45.5 -76h-165h-145q0 15 15.5 38t42.5 41q9 6 11.5 16.5t-3.5 20t-16.5 12t-19.5 -3.5q-82 -54 -82 -151zM128 72q-32 0 -54.5 22t-22.5 53v571h846q31 0 53.5 -22
t22.5 -54v-493q0 -10 7.5 -17.5t18.5 -7.5t18.5 7.5t7.5 17.5v493q0 52 -37.5 89t-90.5 37h-871h-26v-25v-596q0 -52 37.5 -89t90.5 -37h784q11 0 18.5 7.5t7.5 18t-7.5 18t-18.5 7.5h-784zM872 491q10 0 17 6t7 15t-7 15t-17 6h-293q-10 0 -17 -6t-7 -15t7 -15t17 -6h293z
M807 384q10 0 17.5 6t7.5 15t-7.5 15.5t-17.5 6.5h-227q-11 0 -18 -6.5t-7 -15.5t7 -15t18 -6h227z" />
    <glyph glyph-name="suo" unicode="&#xe6e3;" 
d="M785 517v143q0 89 -63 152t-152 63h-111q-89 0 -152 -63t-63 -151v-144h-3q-51 0 -86.5 -35.5t-35.5 -86.5v-374q0 -50 35.5 -85.5t86.5 -35.5h542q51 0 86.5 35.5t35.5 85.5v374q0 50 -35 85.5t-85 36.5zM291 661q0 69 49.5 118t118.5 49h111q69 0 118.5 -49t49.5 -119
v-143h-224h-223v144v0zM858 21q0 -31 -22 -52.5t-53 -21.5h-542q-31 0 -53 21.5t-22 52.5v374q0 31 22 53t53 22h273h271v0q30 -1 51.5 -22.5t21.5 -52.5v-374zM514.5 361q-40.5 0 -69 -29.5t-28.5 -71.5q0 -35 20.5 -62t52.5 -36v-4v-107q0 -10 7 -17t17.5 -7t17.5 7t7 17
v107v4q32 9 52.5 36t20.5 62q0 42 -28.5 71.5t-69 29.5zM514.5 206q-20.5 0 -35.5 16t-15 38.5t15 38t35.5 15.5t35.5 -15.5t15 -38t-15 -38.5t-35.5 -16z" />
    <glyph glyph-name="xuanzhong" unicode="&#xe615;" 
d="M442 -10q-117 0 -216 66t-143 178q-30 73 -26 150t32.5 144t83.5 121.5t128 83.5q102 39 208.5 20t188.5 -92q10 -11 1 -23q-10 -10 -22 -1q-74 67 -172 84.5t-191 -19.5q-68 -26 -118.5 -75.5t-76.5 -111t-29.5 -131.5t24.5 -138q26 -66 75.5 -117t111 -77t131.5 -29.5
t138 23.5q107 42 168 138t54 211q0 15 14 18q6 0 11.5 -4.5t6.5 -10.5q7 -124 -60 -228.5t-183 -150.5q-62 -29 -139 -29zM432 227q-6 0 -11 5l-229 229q-11 11 0 22t22 0l218 -217l507 507q11 11 22.5 0t0.5 -23l-519 -518q-5 -5 -11 -5z" />
    <glyph glyph-name="218-star-full" unicode="&#xe671;" 
d="M1024 499l-354 51l-158 321l-158 -321l-354 -51l256 -250l-60 -352l316 166l316 -166l-60 352z" />
    <glyph glyph-name="account" unicode="&#xe603;" 
d="M512 725q71 0 121 -50t50 -120.5t-50 -120.5t-121 -50t-121 50t-50 120.5t50 120.5t121 50zM512 299q93 0 171.5 -23t124 -62.5t45.5 -85.5v-85h-682v85q0 46 45.5 85.5t124 62.5t171.5 23z" />
    <glyph glyph-name="cellphone-android" unicode="&#xe693;" 
d="M736 128h-448v597h448v-597zM597 0h-170v43h170v-43zM683 853h-342q-53 0 -90.5 -37.5t-37.5 -90.5v-682q0 -53 37.5 -90.5t90.5 -37.5h342q53 0 90.5 37.5t37.5 90.5v682q0 53 -37.5 90.5t-90.5 37.5z" />
    <glyph glyph-name="cellphone-iphone" unicode="&#xe694;" 
d="M683 128h-384v597h384v-597zM490.5 -43q-26.5 0 -45 19t-18.5 45.5t18.5 45t45 18.5t45.5 -18.5t19 -45t-19 -45.5t-45.5 -19zM661 853h-341q-44 0 -75.5 -31t-31.5 -75v-726v0q0 -44 31.5 -75t75.5 -31h341q44 0 75.5 31t31.5 75v726q0 44 -31.5 75t-75.5 31z" />
    <glyph glyph-name="cellphone-basic" unicode="&#xe695;" 
d="M640 811q-18 0 -30.5 -12.5t-12.5 -30.5v-128h-170q-36 0 -61 -25t-25 -60v-512q0 -36 25 -61t61 -25h213q36 0 60.5 25t24.5 61v512q0 49 -42 73v140q0 18 -12.5 30.5t-30.5 12.5zM427 555h213v-214h-213v214zM427 256h42v-43h-42v43zM512 256h43v-43h-43v43zM597 256
h43v-43h-43v43zM427 171h42v-43h-42v43zM512 171h43v-43h-43v43zM597 171h43v-43h-43v43zM427 85h42v-42h-42v42zM512 85h43v-42h-43v42zM597 85h43v-42h-43v42z" />
    <glyph glyph-name="chart-arc" unicode="&#xe697;" 
d="M690 60l-85 148q67 50 76 133h172q-4 -75 -52 -157.5t-111 -123.5zM555 596v172q137 -8 235 -106t106 -235h-172q-7 63 -56.5 112.5t-112.5 56.5zM299 363q0 -41 16 -77l-149 -86q-15 32 -26.5 79t-11.5 83v1q0 144 99 249t242 113v-172q-72 -8 -121 -62.5t-49 -127.5z
M491 0q-94 0 -174 44t-129 119l148 86q24 -33 69 -55.5t85 -22.5h1q41 0 76 16l86 -149q-76 -38 -162 -38v0z" />
    <glyph glyph-name="chart-areaspline" unicode="&#xe698;" 
d="M745 248l194 336v-584h-854v768h86v-535l234 407l278 -161l181 312l73 -42l-223 -386l-278 160l-252 -438h96l188 323z" />
    <glyph glyph-name="chart-bar" unicode="&#xe699;" 
d="M939 0h-854v768h86v-683h85v384h171v-384h85v555h171v-555h85v214h171v-299v0z" />
    <glyph glyph-name="chart-line" unicode="&#xe69b;" 
d="M683 393l181 313l73 -43l-223 -386l-278 160l-203 -352h706v-85h-854v768h86v-620l234 407z" />
    <glyph glyph-name="chart-pie" unicode="&#xe69c;" 
d="M896 427h-341v341v0q92 0 171 -45.5t124.5 -124.5t45.5 -171zM811 341q0 -75 -45 -158.5t-108 -125.5l-164 284h317zM469 0q-75 0 -158.5 44.5t-125.5 107.5l277 160l159 -277q-71 -35 -152 -35v0zM128 341q0 93 45.5 171.5t124.5 124.5t171 46v-317l-306 -177
q-14 30 -24.5 74.5t-10.5 77.5v0z" />
    <glyph glyph-name="chevron-double-down" unicode="&#xe6a7;" 
d="M708 657l60 -60l-256 -256l-256 256l60 60l196 -195zM708 401l60 -60l-256 -256l-256 256l60 60l196 -195z" />
    <glyph glyph-name="chevron-double-left" unicode="&#xe6a8;" 
d="M785 580l-60 60l-256 -256l256 -256l60 60l-195 196zM529 580l-60 60l-256 -256l256 -256l60 60l-195 196z" />
    <glyph glyph-name="chevron-double-right" unicode="&#xe6ad;" 
d="M239 580l60 60l256 -256l-256 -256l-60 60l195 196zM495 580l60 60l256 -256l-256 -256l-60 60l195 196z" />
    <glyph glyph-name="chevron-double-up" unicode="&#xe6ae;" 
d="M316 111l-60 60l256 256l256 -256l-60 -60l-196 195zM316 367l-60 60l256 256l256 -256l-60 -60l-196 195z" />
    <glyph glyph-name="chevron-down" unicode="&#xe6a9;" 
d="M316 530l196 -196l196 196l60 -61l-256 -256l-256 256z" />
    <glyph glyph-name="chevron-left" unicode="&#xe6aa;" 
d="M657 189l-195 195l195 196l-60 60l-256 -256l256 -256z" />
    <glyph glyph-name="chevron-right" unicode="&#xe6ab;" 
d="M367 189l195 195l-195 196l60 60l256 -256l-256 -256z" />
    <glyph glyph-name="chevron-up" unicode="&#xe6ac;" 
d="M316 239l196 195l196 -195l60 60l-256 256l-256 -256z" />
    <glyph glyph-name="clipboard-outline" unicode="&#xe6b2;" 
d="M299 555v85h-86v-555h598v555h-86v-85h-426zM384 725q0 53 37.5 90.5t90.5 37.5t90.5 -37.5t37.5 -90.5h171v0q35 0 60 -25t25 -60v-555q0 -35 -25 -60t-60 -25h-598q-35 0 -60 25t-25 60v555q0 35 25 60t60 25h171zM512 768v0q-18 0 -30.5 -12.5t-12.5 -30t12.5 -30
t30.5 -12.5t30.5 12.5t12.5 30t-12.5 30t-30.5 12.5z" />
    <glyph glyph-name="clipboard-text" unicode="&#xe6b3;" 
d="M725 512h-426v85h426v-85zM725 341h-426v86h426v-86zM597 171h-298v85h298v-85zM512 768q18 0 30.5 -12.5t12.5 -30t-12.5 -30t-30.5 -12.5v0q-18 0 -30.5 12.5t-12.5 30t12.5 30t30.5 12.5zM811 768h-179q-13 38 -46 61.5t-74 23.5t-74 -23.5t-46 -61.5h-179
q-35 0 -60 -25t-25 -60v-598q0 -35 25 -60t60 -25h598v0q35 0 60 25t25 60v598q0 35 -25 60t-60 25z" />
    <glyph glyph-name="close-box" unicode="&#xe6b9;" 
d="M811 768h-598q-35 0 -60 -25t-25 -60v-598q0 -35 25 -60t60 -25h598v0q35 0 60 25t25 60v598q0 35 -25 60t-60 25zM666 171l-154 153l-154 -153l-59 59l153 154l-153 154l59 59l154 -153l154 153l59 -59l-153 -154l153 -154z" />
    <glyph glyph-name="close-box-outline" unicode="&#xe6ba;" 
d="M811 768h-598q-35 0 -60 -25t-25 -60v-598q0 -35 25 -60t60 -25h598v0q35 0 60 25t25 60v598q0 35 -25 60t-60 25zM811 85h-598v598h598v-598zM725 538l-153 -154l153 -154l-59 -59l-154 153l-154 -153l-59 59l153 154l-153 154l59 59l154 -153l154 153z" />
    <glyph glyph-name="close-circle" unicode="&#xe6b6;" 
d="M512 811q116 0 214.5 -57t155.5 -155.5t57 -214.5t-57 -214.5t-155.5 -155.5t-214.5 -57t-214.5 57t-155.5 155.5t-57 214.5t57 214.5t155.5 155.5t214.5 57zM665 597l-153 -153l-153 153l-60 -60l153 -153l-153 -153l60 -60l153 153l153 -153l60 60l-153 153l153 153z
" />
    <glyph glyph-name="close-circle-outline" unicode="&#xe6b7;" 
d="M512 43q-93 0 -171.5 45.5t-124 124t-45.5 171.5t45.5 171.5t124 124t171.5 45.5t171.5 -45.5t124 -124t45.5 -171.5t-45.5 -171.5t-124 -124t-171.5 -45.5zM512 811q-116 0 -214.5 -57t-155.5 -155.5t-57 -214.5t57 -214.5t155.5 -155.5t214.5 -57t214.5 57t155.5 155.5
t57 214.5t-57 214.5t-155.5 155.5t-214.5 57zM623 555l-111 -111l-111 111l-60 -60l111 -111l-111 -111l60 -60l111 111l111 -111l60 60l-111 111l111 111z" />
    <glyph glyph-name="close" unicode="&#xe6b8;" 
d="M811 623l-60 60l-239 -239l-239 239l-60 -60l239 -239l-239 -239l60 -60l239 239l239 -239l60 60l-239 239z" />
    <glyph glyph-name="flag" unicode="&#xe73e;" 
d="M614 640l-17 85h-384v-725h86v299h239l17 -86h298v427h-239z" />
    <glyph glyph-name="flag-checkered" unicode="&#xe73f;" 
d="M614 640h239v-427h-298l-17 86h-239v-299h-86v725h384zM597 299h86v85h85v85h-85v86h-86v-86l-42 86v85h-86v-85h-85v85h-85v-85h85v-86h-85v-85h85v85h85v-85h86v85l42 -85v-85zM469 469v86h86v-86h-86zM597 469h86v-85h-86v85z" />
    <glyph glyph-name="flag-triangle" unicode="&#xe740;" 
d="M299 811h85v-854h-85v854zM811 512l-342 -239v478z" />
    <glyph glyph-name="flag-outline" unicode="&#xe741;" 
d="M619 640h234v-427h-298l-22 86h-234v-299h-86v725h384zM299 640v-256h256l21 -85h192v256h-171l-21 85h-277z" />
    <glyph glyph-name="flag-variant" unicode="&#xe742;" 
d="M256 768v0q18 0 30.5 -12.5t12.5 -30.5v-37q90 37 170 37q36 0 63 -8.5t43.5 -21t31.5 -25t33.5 -21.5t42.5 -9q36 0 66.5 9t49 21.5t31.5 25t18 21.5l5 8v-341q-1 -3 -5 -9t-18 -20.5t-32 -26t-48.5 -20.5t-66.5 -9t-63 8.5t-43.5 21t-31.5 25t-33.5 21.5t-42.5 9
q-36 0 -66.5 -9t-49 -21.5t-31.5 -25t-18 -21.5l-5 -8v-299h-86v725q0 18 12.5 30.5t30.5 12.5z" />
    <glyph glyph-name="flag-outline-variant" unicode="&#xe743;" 
d="M256 768v0q18 0 30.5 -12.5t12.5 -30.5v-37q90 37 170 37q36 0 63 -8.5t43.5 -21t31.5 -25t33.5 -21.5t42.5 -9q36 0 66.5 9t49 21.5t31.5 25t18 21.5l5 8v-341q-1 -3 -5 -9t-18 -20.5t-32 -26t-48.5 -20.5t-66.5 -9t-63 8.5t-43.5 21t-31.5 25t-33.5 21.5t-42.5 9
q-36 0 -66.5 -9t-49 -21.5t-31.5 -25t-18 -21.5l-5 -8v-299h-86v725q0 18 12.5 30.5t30.5 12.5zM299 587v-182q9 8 25.5 18.5t61.5 28t83 17.5q29 0 58 -13t49 -29t49 -29.5t58 -13.5q24 0 41.5 4.5t25.5 10.5t12.5 12.5t4.5 10.5l1 5v149q-43 -21 -85 -21q-29 0 -58 13
t-49 29t-49 29.5t-58 13.5q-38 0 -80.5 -13.5t-66.5 -26.5z" />
    <glyph glyph-name="folder-multiple" unicode="&#xe74c;" 
d="M939 725h-342l-85 86h-256q-35 0 -60 -25t-25 -61v-512q0 -35 25 -60t60 -25h683v0q35 0 60 25t25 60v427q0 35 -25 60t-60 25zM85 640h-85v-597q0 -36 25 -61t60 -25h768v86h-768v597z" />
    <glyph glyph-name="folder-multiple-outline" unicode="&#xe74d;" 
d="M939 725v0q35 0 60 -25t25 -60v-427q0 -35 -25 -60t-60 -25h-683q-35 0 -60 25t-25 60v512q0 36 25 61t60 25h256l85 -86h342zM85 640v-597h768v-86h-768q-35 0 -60 25t-25 61v597h85zM256 640v-427h683v427h-683z" />
    <glyph glyph-name="folder-outline" unicode="&#xe74e;" 
d="M853 128h-682v427h682v-427zM853 640h-341l-85 85h-256q-36 0 -61 -24.5t-25 -60.5v-512q0 -35 25 -60t61 -25h682v0q36 0 61 25t25 60v427q0 35 -25 60t-61 25z" />
    <glyph glyph-name="laptop" unicode="&#xe7ca;" 
d="M171 640h682v-427h-682v427zM853 128v0q36 0 61 25t25 60v427q0 35 -25 60t-61 25h-682q-36 0 -61 -24.5t-25 -60.5v-427q0 -35 25 -60t61 -25h-171v-85h1024v85h-171z" />
    <glyph glyph-name="laptop-chromebook" unicode="&#xe7cc;" 
d="M853 256h-682v427h682v-427zM597 128h-170v43h170v-43zM939 128v640h-854v-640h-85v-85h1024v85h-85z" />
    <glyph glyph-name="laptop-mac" unicode="&#xe7cd;" 
d="M512 85v0q-18 0 -30.5 12.5t-12.5 30.5t12.5 30.5t30.5 12.5t30.5 -12.5t12.5 -30.5t-12.5 -30.5t-30.5 -12.5zM171 683h682v-470h-682v470zM853 128v0q36 0 61 25t25 60v470q0 35 -25 60t-61 25h-682q-36 0 -61 -25t-25 -60v-470q0 -35 25 -60t61 -25h-171q0 -35 25 -60
t60 -25h854v0q35 0 60 25t25 60h-171z" />
    <glyph glyph-name="laptop-windows" unicode="&#xe7ce;" 
d="M128 725h768q18 0 30.5 -12.5t12.5 -29.5v-470q0 -17 -12.5 -29.5t-30.5 -12.5h43l85 -128v-43h-1024v43l85 128h43q-18 0 -30.5 12.5t-12.5 29.5v470q0 17 12.5 29.5t30.5 12.5zM171 640v-384h682v384h-682z" />
    <glyph glyph-name="map-marker" unicode="&#xe7e1;" 
d="M512 405v0q-44 0 -75.5 31.5t-31.5 75.5t31.5 75.5t75.5 31.5v0q44 0 75.5 -31.5t31.5 -75.5t-31.5 -75.5t-75.5 -31.5zM512 811q-124 0 -211.5 -87.5t-87.5 -211.5q0 -63 31 -143t75 -149.5t87.5 -130.5t74.5 -96l31 -36q12 14 32 37.5t71.5 92.5t91 134t72 146.5
t32.5 144.5q0 124 -87.5 211.5t-211.5 87.5z" />
    <glyph glyph-name="map-marker-multiple" unicode="&#xe7e2;" 
d="M597 405v0q44 0 75.5 31.5t31.5 75.5t-31.5 75.5t-75.5 31.5t-75 -31.5t-31 -75.5t31 -75.5t75 -31.5zM597.5 811q123.5 0 211 -87.5t87.5 -211.5q0 -63 -31 -143t-74.5 -149.5t-87.5 -130.5t-75 -96l-31 -36q-12 14 -32 37.5t-71.5 92.5t-91 134t-71.5 146.5t-32 144.5
q0 124 87.5 211.5t211 87.5zM213 512q0 -184 256 -504l-42 -51q-12 14 -32.5 37.5t-72 92.5t-90.5 134t-71.5 146.5t-32.5 144.5q0 100 60 179t153 107q-60 -54 -94 -128t-34 -158z" />
    <glyph glyph-name="map-marker-radius" unicode="&#xe7e4;" 
d="M512 811q106 0 181 -74.5t75 -179.5q0 -53 -27.5 -123t-61.5 -125t-78 -113.5t-61.5 -78.5t-27.5 -32v0q-10 12 -27.5 32t-61.5 78.5t-78 113.5t-61.5 125t-27.5 123q0 105 75 179.5t181 74.5zM512 640q-35 0 -60 -25t-25 -60.5t25 -60.5t60 -25v0q35 0 60 25t25 60.5
t-25 60.5t-60 25zM853 85q0 -46 -45.5 -85.5t-124 -62t-171.5 -22.5t-171.5 22.5t-124 62t-45.5 85.5q0 41 35.5 76.5t96.5 59.5l28 -39q-75 -31 -75 -75t75 -75.5t181 -31.5t181 31.5t75 75.5t-75 75l28 39q61 -24 96.5 -59.5t35.5 -76.5z" />
    <glyph glyph-name="monitor" unicode="&#xe7fe;" 
d="M896 213h-768v512h768v-512zM896 811h-768q-36 0 -60.5 -25t-24.5 -61v-512q0 -35 25 -60t60 -25h299v-85h-86v-86h342v86h-86v85h299v0q35 0 60 25t25 60v512q0 36 -25 61t-60 25z" />
    <glyph glyph-name="phone" unicode="&#xe83f;" 
d="M282 436q47 -91 119 -163t163 -119l93 94q19 19 44 11q74 -24 152 -24q18 0 30.5 -12.5t12.5 -30.5v-149q0 -18 -12.5 -30.5t-30.5 -12.5q-147 0 -281.5 57.5t-231.5 154.5t-154.5 231.5t-57.5 281.5q0 18 12.5 30.5t30.5 12.5h149v0q18 0 30.5 -12.5t12.5 -30.5
q0 -78 24 -152q8 -25 -11 -44z" />
    <glyph glyph-name="phone-classic" unicode="&#xe841;" 
d="M512 768q-143 0 -271.5 -52.5t-228.5 -146.5q-12 -13 -12 -30.5t12 -30.5l106 -106q13 -12 30 -12q18 0 30 12q50 47 114 79q24 11 24 38v133q94 31 196 31q101 0 196 -31v-132q0 -27 24 -39q57 -29 114 -79q12 -12 29 -12q18 0 31 13l106 106q12 12 12 30q0 17 -13 30
q-87 82 -233 140.5t-266 58.5v0zM384 597v-128q-10 -8 -27.5 -23.5t-61.5 -59t-78 -83.5t-61.5 -89.5t-27.5 -85.5v-171h768v171q0 36 -26.5 84t-64 92t-75 81.5t-64 61t-26.5 22.5v128h-85v-85h-86v85h-85zM512 384q71 0 121 -50t50 -120.5t-50 -120.5t-121 -50t-121 50
t-50 120.5t50 120.5t121 50zM512 320v0q-44 0 -75.5 -31.5t-31.5 -75.5t31.5 -75t75.5 -31t75.5 31t31.5 75t-31.5 75.5t-75.5 31.5z" />
    <glyph glyph-name="phone-incoming" unicode="&#xe842;" 
d="M171 768q-18 0 -30.5 -12.5t-12.5 -30.5q0 -147 57.5 -281.5t154.5 -231.5t231.5 -154.5t281.5 -57.5q18 0 30.5 12.5t12.5 30.5v149q0 18 -12.5 30.5t-30.5 12.5q-78 0 -152 24q-6 2 -13 2q-18 0 -31 -12l-93 -94q-78 39 -160 121.5t-122 159.5l94 94q13 12 13 30
q0 7 -2 13q-10 31 -17 75t-7 77v0q0 18 -12.5 30.5t-30.5 12.5h-149zM811 427v64h-150l235 234l-43 43l-234 -235v150h-64v-256h256z" />
    <glyph glyph-name="phone-in-talk" unicode="&#xe843;" 
d="M640 384h85q0 88 -62.5 150.5t-150.5 62.5v-85q53 0 90.5 -37.5t37.5 -90.5zM811 384h85q0 105 -51.5 193.5t-140 139.5t-192.5 51v-85q124 0 211.5 -87.5t87.5 -211.5zM853 235q-78 0 -152 24q-25 8 -44 -11l-93 -94q-77 40 -159.5 122.5t-122.5 159.5l94 93
q19 19 11 44q-10 31 -17 75t-7 77v0q0 18 -12.5 30.5t-30.5 12.5h-149q-18 0 -30.5 -12.5t-12.5 -30.5q0 -147 57.5 -281.5t154.5 -231.5t231.5 -154.5t281.5 -57.5q18 0 30.5 12.5t12.5 30.5v149q0 18 -12.5 30.5t-30.5 12.5z" />
    <glyph glyph-name="tupian1" unicode="&#xe611;" 
d="M904 46q0 -23 -16 -39.5t-39 -16.5h-145l-205 209l238 238l167 -168v-223v0zM179 -10q-24 0 -40 16.5t-16 39.5v26l221 199l281 -281h-446zM290 716q46 0 79 -32.5t33 -79t-33 -79t-79 -32.5t-78.5 32.5t-32.5 79t32.5 79t78.5 32.5zM849 828h-670q-47 0 -79.5 -33
t-32.5 -79v-670q0 -46 32.5 -79t79.5 -33h670q46 0 78.5 33t32.5 79v670q0 46 -32.5 79t-78.5 33z" />
    <glyph glyph-name="originalimage" unicode="&#xe806;" 
d="M988 -83q-1 4 -2.5 6.5t-3.5 5.5q-4 5 -9 11q-12 13 -31 32q-23 24 -93 96q-72 72 -92 94q-23 24 -30 31q-5 6 -7 8q1 -1 3 -5q1 -6 0 -9t-7 -15q60 58 93 135.5t33 163.5q0 111 -54 206t-147 150t-202.5 55t-202.5 -55t-147 -150t-54 -206.5t54 -206t147 -149.5t202 -55
h16q11 1 14 1q16 2 23 2q12 0 46 10q2 0 8 2q11 3 24 7q3 1 6.5 2t4.5 2q10 3 14.5 12t1.5 19t-12 14.5t-18 1.5q-1 0 -4.5 -1t-6.5 -2q-11 -4 -24 -7q-6 -2 -7 -2q-28 -8 -33 -8q-8 0 -28 -2q-10 -1 -13 -1q-6 -1 -12 -1q-96 0 -178 48.5t-129.5 132t-47.5 181.5t47.5 181
t129.5 131.5t178.5 48.5t178 -48.5t129 -131.5t47.5 -181q0 -75 -29 -143.5t-82 -119.5q-6 -13 -7 -16t1 -9q1 -4 2.5 -6.5t3.5 -5.5q4 -5 9 -11q11 -12 31 -32q21 -23 93 -95q66 -68 92 -95q23 -24 30 -31q5 -7 6 -8q-1 1 -2 5q-2 6 -1 9.5t9 15.5q-8 -6 -8.5 -16.5
t6 -18.5t16.5 -9t18 6q7 13 8 16t-1 10v0zM436 243q96 0 163.5 67.5t67.5 163.5t-67.5 164t-163.5 68t-164 -68t-68 -164t68 -163.5t164 -67.5zM435.5 289q-76.5 0 -131 54.5t-54.5 131t54.5 131t131 54.5t131 -54.5t54.5 -131t-54.5 -131t-131 -54.5z" />
    <glyph glyph-name="changyongxinxi" unicode="&#xe886;" 
d="M256 768h-128q-18 0 -30.5 -12.5t-12.5 -30.5v-682q0 -18 12.5 -30.5t30.5 -12.5h768v0q18 0 30.5 12.5t12.5 30.5v682q0 18 -12.5 30.5t-30.5 12.5h-128v-43h128v-682h-768v682h128v43zM299 789q0 9 6 15.5t15 6.5t15 -6.5t6 -15.5v-128q0 -9 -6 -15t-15 -6t-15 6.5
t-6 14.5v128zM384 768h256v-43h-256v43zM683 789q0 9 6 15.5t15 6.5t15 -6.5t6 -15.5v-128q0 -9 -6 -15t-15 -6t-15 6.5t-6 14.5v128zM363 299q-46 0 -78.5 39t-32.5 95q0 54 31.5 88t79 34t79.5 -34t32 -88q0 -56 -32.5 -95t-78.5 -39zM363 512q-30 0 -49.5 -21.5
t-19.5 -57.5q0 -39 20.5 -65.5t48 -26.5t48 26.5t20.5 65.5q0 36 -19 57.5t-49 21.5zM549 170q3 -18 -7 -30t-28 -12h-303q-18 0 -28.5 12.5t-5.5 29.5q-1 4 0 11.5t10 26t26 32.5t56 25.5t94 11.5q39 0 70.5 -6t50.5 -15.5t33 -21t20 -23t9 -21t3 -14.5v-6zM230 196
q-11 -13 -11 -24v1l1 -8l-2 -6q1 4 -1.5 8t-5.5 4h303q-2 0 -5 -3.5t-2 -6.5l-1 6v6v-1q1 11 -10 24q-32 39 -133 39t-133 -39v0zM597 469h235v-42h-235v42zM597 341h171v-42h-171v42z" />
    <glyph glyph-name="xuanzhong1" unicode="&#xe759;" horiz-adv-x="1026" 
d="M512.5 896q-104.5 0 -199.5 -40.5t-163.5 -109t-109 -163.5t-40.5 -199t40.5 -199t109 -163.5t163.5 -109t199.5 -40.5t199.5 40.5t163.5 109t109 163.5t40.5 199t-40.5 199t-109 163.5t-163.5 109t-199.5 40.5zM512.5 -98q-98.5 0 -187.5 38t-153.5 102.5t-102.5 154
t-38 187.5t38 187.5t102.5 154t153.5 102.5t187.5 38t187.5 -38t153.5 -102.5t103 -154t38.5 -187.5t-38.5 -187.5t-103 -154t-153.5 -102.5t-187.5 -38z" />
    <glyph glyph-name="pieChart" unicode="&#xe64a;" 
d="M451 779v-268l-191 184q84 68 191 84zM491 824q-83 -4 -157.5 -37.5t-131.5 -90.5l289 -279v407zM194 610l234 -217l-235 -234q-28 40 -45 84q-26 68 -26 141t26 141q18 46 46 85zM190 669q-108 -122 -108 -285t108 -285l295 295zM553 762q56 -6 108 -28
q68 -29 120.5 -81.5t80.5 -120.5q30 -71 30 -148t-30 -148q-29 -68 -81.5 -120.5t-120.5 -81.5q-71 -30 -148 -30t-148 30q-49 21 -91 54l279 279v17zM513 804l-1 -420l-297 -297q58 -58 135 -90.5t162 -32.5q114 0 211 56t153 153t56 211t-56 210.5t-152.5 153t-210.5 56.5
z" />
  </font>
</defs>
</svg>
